<?xml version="1.0" encoding="UTF-8"?>
<svg xmlns="http://www.w3.org/2000/svg" xmlns:xlink="http://www.w3.org/1999/xlink" width="119pt" height="63pt" viewBox="0 0 119 63" version="1.1">
<g id="surface1">
<path style="fill-rule:nonzero;fill:rgb(100%,0%,0%);fill-opacity:1;stroke-width:0.79701;stroke-linecap:butt;stroke-linejoin:miter;stroke:rgb(0%,0%,0%);stroke-opacity:1;stroke-miterlimit:10;" d="M 1.993125 0.00171875 C 1.993125 1.099375 1.098594 1.993906 0.0009375 1.993906 C -1.100625 1.993906 -1.99125 1.099375 -1.99125 0.00171875 C -1.99125 -1.099844 -1.100625 -1.994375 0.0009375 -1.994375 C 1.098594 -1.994375 1.993125 -1.099844 1.993125 0.00171875 Z M 1.993125 0.00171875 " transform="matrix(1,0,0,-1,2.71,2.99)"/>
<path style="fill-rule:nonzero;fill:rgb(100%,0%,0%);fill-opacity:1;stroke-width:0.79701;stroke-linecap:butt;stroke-linejoin:miter;stroke:rgb(0%,0%,0%);stroke-opacity:1;stroke-miterlimit:10;" d="M 58.684531 0.00171875 C 58.684531 1.099375 57.793906 1.993906 56.692344 1.993906 C 55.594687 1.993906 54.700156 1.099375 54.700156 0.00171875 C 54.700156 -1.099844 55.594687 -1.994375 56.692344 -1.994375 C 57.793906 -1.994375 58.684531 -1.099844 58.684531 0.00171875 Z M 58.684531 0.00171875 " transform="matrix(1,0,0,-1,2.71,2.99)"/>
<path style="fill-rule:nonzero;fill:rgb(100%,0%,0%);fill-opacity:1;stroke-width:0.79701;stroke-linecap:butt;stroke-linejoin:miter;stroke:rgb(0%,0%,0%);stroke-opacity:1;stroke-miterlimit:10;" d="M 115.379844 0.00171875 C 115.379844 1.099375 114.489219 1.993906 113.387656 1.993906 C 112.286094 1.993906 111.395469 1.099375 111.395469 0.00171875 C 111.395469 -1.099844 112.286094 -1.994375 113.387656 -1.994375 C 114.489219 -1.994375 115.379844 -1.099844 115.379844 0.00171875 Z M 115.379844 0.00171875 " transform="matrix(1,0,0,-1,2.71,2.99)"/>
<path style="fill-rule:nonzero;fill:rgb(100%,0%,0%);fill-opacity:1;stroke-width:0.79701;stroke-linecap:butt;stroke-linejoin:miter;stroke:rgb(0%,0%,0%);stroke-opacity:1;stroke-miterlimit:10;" d="M 30.340781 -56.693594 C 30.340781 -55.592031 29.44625 -54.701406 28.348594 -54.701406 C 27.247031 -54.701406 26.3525 -55.592031 26.3525 -56.693594 C 26.3525 -57.795156 27.247031 -58.685781 28.348594 -58.685781 C 29.44625 -58.685781 30.340781 -57.795156 30.340781 -56.693594 Z M 30.340781 -56.693594 " transform="matrix(1,0,0,-1,2.71,2.99)"/>
<path style="fill-rule:nonzero;fill:rgb(100%,0%,0%);fill-opacity:1;stroke-width:0.79701;stroke-linecap:butt;stroke-linejoin:miter;stroke:rgb(0%,0%,0%);stroke-opacity:1;stroke-miterlimit:10;" d="M 87.032187 -56.693594 C 87.032187 -55.592031 86.141562 -54.701406 85.04 -54.701406 C 83.938437 -54.701406 83.047812 -55.592031 83.047812 -56.693594 C 83.047812 -57.795156 83.938437 -58.685781 85.04 -58.685781 C 86.141562 -58.685781 87.032187 -57.795156 87.032187 -56.693594 Z M 87.032187 -56.693594 " transform="matrix(1,0,0,-1,2.71,2.99)"/>
<path style="fill:none;stroke-width:0.3985;stroke-linecap:butt;stroke-linejoin:miter;stroke:rgb(0%,0%,0%);stroke-opacity:1;stroke-miterlimit:10;" d="M 1.075156 -2.146719 L 27.278281 -54.556875 M 29.418906 -54.545156 L 55.625937 -2.138906 M 57.766562 -2.146719 L 83.969687 -54.556875 M 86.114219 -54.545156 L 112.317344 -2.138906 M 111.391562 -1.330312 L 30.340781 -55.361562 " transform="matrix(1,0,0,-1,2.71,2.99)"/>
</g>
</svg>
