<?xml version="1.0" encoding="UTF-8"?>
<svg xmlns="http://www.w3.org/2000/svg" xmlns:xlink="http://www.w3.org/1999/xlink" width="119pt" height="63pt" viewBox="0 0 119 63" version="1.1">
<g id="surface1">
<path style="fill-rule:nonzero;fill:rgb(100%,0%,0%);fill-opacity:1;stroke-width:0.79701;stroke-linecap:butt;stroke-linejoin:miter;stroke:rgb(0%,0%,0%);stroke-opacity:1;stroke-miterlimit:10;" d="M 1.992969 -0.00140625 C 1.992969 1.100156 1.102344 1.990781 0.00078125 1.990781 C -1.100781 1.990781 -1.991406 1.100156 -1.991406 -0.00140625 C -1.991406 -1.099062 -1.100781 -1.993594 0.00078125 -1.993594 C 1.102344 -1.993594 1.992969 -1.099062 1.992969 -0.00140625 Z M 1.992969 -0.00140625 " transform="matrix(1,0,0,-1,2.8,3.19)"/>
<path style="fill-rule:nonzero;fill:rgb(100%,0%,0%);fill-opacity:1;stroke-width:0.79701;stroke-linecap:butt;stroke-linejoin:miter;stroke:rgb(0%,0%,0%);stroke-opacity:1;stroke-miterlimit:10;" d="M 58.684375 -0.00140625 C 58.684375 1.100156 57.79375 1.990781 56.692188 1.990781 C 55.594531 1.990781 54.7 1.100156 54.7 -0.00140625 C 54.7 -1.099062 55.594531 -1.993594 56.692188 -1.993594 C 57.79375 -1.993594 58.684375 -1.099062 58.684375 -0.00140625 Z M 58.684375 -0.00140625 " transform="matrix(1,0,0,-1,2.8,3.19)"/>
<path style="fill-rule:nonzero;fill:rgb(100%,0%,0%);fill-opacity:1;stroke-width:0.79701;stroke-linecap:butt;stroke-linejoin:miter;stroke:rgb(0%,0%,0%);stroke-opacity:1;stroke-miterlimit:10;" d="M 115.379688 -0.00140625 C 115.379688 1.100156 114.489063 1.990781 113.3875 1.990781 C 112.285938 1.990781 111.395313 1.100156 111.395313 -0.00140625 C 111.395313 -1.099062 112.285938 -1.993594 113.3875 -1.993594 C 114.489063 -1.993594 115.379688 -1.099062 115.379688 -0.00140625 Z M 115.379688 -0.00140625 " transform="matrix(1,0,0,-1,2.8,3.19)"/>
<path style="fill-rule:nonzero;fill:rgb(100%,0%,0%);fill-opacity:1;stroke-width:0.79701;stroke-linecap:butt;stroke-linejoin:miter;stroke:rgb(0%,0%,0%);stroke-opacity:1;stroke-miterlimit:10;" d="M 30.340625 -56.692812 C 30.340625 -55.59125 29.446094 -54.700625 28.348438 -54.700625 C 27.246875 -54.700625 26.352344 -55.59125 26.352344 -56.692812 C 26.352344 -57.794375 27.246875 -58.685 28.348438 -58.685 C 29.446094 -58.685 30.340625 -57.794375 30.340625 -56.692812 Z M 30.340625 -56.692812 " transform="matrix(1,0,0,-1,2.8,3.19)"/>
<path style="fill-rule:nonzero;fill:rgb(100%,0%,0%);fill-opacity:1;stroke-width:0.79701;stroke-linecap:butt;stroke-linejoin:miter;stroke:rgb(0%,0%,0%);stroke-opacity:1;stroke-miterlimit:10;" d="M 87.032031 -56.692812 C 87.032031 -55.59125 86.141406 -54.700625 85.039844 -54.700625 C 83.938281 -54.700625 83.047656 -55.59125 83.047656 -56.692812 C 83.047656 -57.794375 83.938281 -58.685 85.039844 -58.685 C 86.141406 -58.685 87.032031 -57.794375 87.032031 -56.692812 Z M 87.032031 -56.692812 " transform="matrix(1,0,0,-1,2.8,3.19)"/>
<path style="fill:none;stroke-width:0.3985;stroke-linecap:butt;stroke-linejoin:miter;stroke:rgb(0%,0%,0%);stroke-opacity:1;stroke-miterlimit:10;" d="M 1.075 -2.145937 L 27.278125 -54.556094 M 29.41875 -54.548281 L 55.625781 -2.138125 M 57.766406 -2.145937 L 83.969531 -54.556094 M 86.114063 -54.548281 L 112.317188 -2.138125 M 111.391406 -1.329531 L 30.340625 -55.364687 " transform="matrix(1,0,0,-1,2.8,3.19)"/>
</g>
</svg>
