<?xml version="1.0" encoding="UTF-8"?>
<svg xmlns="http://www.w3.org/2000/svg" xmlns:xlink="http://www.w3.org/1999/xlink" width="204pt" height="104pt" viewBox="0 0 204 104" version="1.1">
<g id="surface1">
<path style="fill-rule:nonzero;fill:rgb(100%,0%,0%);fill-opacity:1;stroke-width:0.79701;stroke-linecap:butt;stroke-linejoin:miter;stroke:rgb(0%,0%,0%);stroke-opacity:1;stroke-miterlimit:10;" d="M 1.993125 28.348281 C 1.993125 29.445937 1.098594 30.340469 0.0009375 30.340469 C -1.100625 30.340469 -1.99125 29.445937 -1.99125 28.348281 C -1.99125 27.246719 -1.100625 26.356094 0.0009375 26.356094 C 1.098594 26.356094 1.993125 27.246719 1.993125 28.348281 Z M 1.993125 28.348281 " transform="matrix(1,0,0,-1,2.71,94.61)"/>
<path style="fill-rule:nonzero;fill:rgb(100%,0%,0%);fill-opacity:1;stroke-width:0.79701;stroke-linecap:butt;stroke-linejoin:miter;stroke:rgb(0%,0%,0%);stroke-opacity:1;stroke-miterlimit:10;" d="M 1.993125 56.692031 C 1.993125 57.793594 1.098594 58.684219 0.0009375 58.684219 C -1.100625 58.684219 -1.99125 57.793594 -1.99125 56.692031 C -1.99125 55.594375 -1.100625 54.699844 0.0009375 54.699844 C 1.098594 54.699844 1.993125 55.594375 1.993125 56.692031 Z M 1.993125 56.692031 " transform="matrix(1,0,0,-1,2.71,94.61)"/>
<path style="fill-rule:nonzero;fill:rgb(100%,0%,0%);fill-opacity:1;stroke-width:0.79701;stroke-linecap:butt;stroke-linejoin:miter;stroke:rgb(0%,0%,0%);stroke-opacity:1;stroke-miterlimit:10;" d="M 30.340781 85.039687 C 30.340781 86.14125 29.44625 87.031875 28.348594 87.031875 C 27.247031 87.031875 26.3525 86.14125 26.3525 85.039687 C 26.3525 83.938125 27.247031 83.0475 28.348594 83.0475 C 29.44625 83.0475 30.340781 83.938125 30.340781 85.039687 Z M 30.340781 85.039687 " transform="matrix(1,0,0,-1,2.71,94.61)"/>
<path style="fill-rule:nonzero;fill:rgb(100%,0%,0%);fill-opacity:1;stroke-width:0.79701;stroke-linecap:butt;stroke-linejoin:miter;stroke:rgb(0%,0%,0%);stroke-opacity:1;stroke-miterlimit:10;" d="M 58.684531 56.692031 C 58.684531 57.793594 57.793906 58.684219 56.692344 58.684219 C 55.594687 58.684219 54.700156 57.793594 54.700156 56.692031 C 54.700156 55.594375 55.594687 54.699844 56.692344 54.699844 C 57.793906 54.699844 58.684531 55.594375 58.684531 56.692031 Z M 58.684531 56.692031 " transform="matrix(1,0,0,-1,2.71,94.61)"/>
<path style="fill-rule:nonzero;fill:rgb(100%,0%,0%);fill-opacity:1;stroke-width:0.79701;stroke-linecap:butt;stroke-linejoin:miter;stroke:rgb(0%,0%,0%);stroke-opacity:1;stroke-miterlimit:10;" d="M 58.684531 28.348281 C 58.684531 29.445937 57.793906 30.340469 56.692344 30.340469 C 55.594687 30.340469 54.700156 29.445937 54.700156 28.348281 C 54.700156 27.246719 55.594687 26.356094 56.692344 26.356094 C 57.793906 26.356094 58.684531 27.246719 58.684531 28.348281 Z M 58.684531 28.348281 " transform="matrix(1,0,0,-1,2.71,94.61)"/>
<path style="fill-rule:nonzero;fill:rgb(100%,0%,0%);fill-opacity:1;stroke-width:0.79701;stroke-linecap:butt;stroke-linejoin:miter;stroke:rgb(0%,0%,0%);stroke-opacity:1;stroke-miterlimit:10;" d="M 30.340781 0.000625 C 30.340781 1.102187 29.44625 1.992812 28.348594 1.992812 C 27.247031 1.992812 26.3525 1.102187 26.3525 0.000625 C 26.3525 -1.100938 27.247031 -1.991563 28.348594 -1.991563 C 29.44625 -1.991563 30.340781 -1.100938 30.340781 0.000625 Z M 30.340781 0.000625 " transform="matrix(1,0,0,-1,2.71,94.61)"/>
<path style="fill:none;stroke-width:0.3985;stroke-linecap:butt;stroke-linejoin:miter;stroke:rgb(0%,0%,0%);stroke-opacity:1;stroke-miterlimit:10;" d="M 0.0009375 30.738906 L 0.0009375 54.301406 M 1.692344 58.383437 L 26.657187 83.348281 M 30.036094 83.348281 L 55.000937 58.383437 M 56.692344 54.301406 L 56.692344 30.738906 M 55.004844 26.656875 L 30.036094 1.692031 M 26.657187 1.692031 L 1.692344 26.656875 M 2.391562 28.348281 L 54.301719 28.348281 M 54.547812 29.418594 L 2.137656 55.625625 M 2.391562 56.692031 L 54.301719 56.692031 " transform="matrix(1,0,0,-1,2.71,94.61)"/>
<path style="fill-rule:nonzero;fill:rgb(100%,0%,0%);fill-opacity:1;stroke-width:0.79701;stroke-linecap:butt;stroke-linejoin:miter;stroke:rgb(0%,0%,0%);stroke-opacity:1;stroke-miterlimit:10;" d="M 143.7275 42.520156 C 143.7275 43.621719 142.832969 44.512344 141.735312 44.512344 C 140.63375 44.512344 139.743125 43.621719 139.743125 42.520156 C 139.743125 41.418594 140.63375 40.527969 141.735312 40.527969 C 142.832969 40.527969 143.7275 41.418594 143.7275 42.520156 Z M 143.7275 42.520156 " transform="matrix(1,0,0,-1,2.71,94.61)"/>
<path style="fill-rule:nonzero;fill:rgb(100%,0%,0%);fill-opacity:1;stroke-width:0.79701;stroke-linecap:butt;stroke-linejoin:miter;stroke:rgb(0%,0%,0%);stroke-opacity:1;stroke-miterlimit:10;" d="M 200.418906 42.520156 C 200.418906 43.621719 199.528281 44.512344 198.426719 44.512344 C 197.329062 44.512344 196.434531 43.621719 196.434531 42.520156 C 196.434531 41.418594 197.329062 40.527969 198.426719 40.527969 C 199.528281 40.527969 200.418906 41.418594 200.418906 42.520156 Z M 200.418906 42.520156 " transform="matrix(1,0,0,-1,2.71,94.61)"/>
<path style="fill-rule:nonzero;fill:rgb(100%,0%,0%);fill-opacity:1;stroke-width:0.79701;stroke-linecap:butt;stroke-linejoin:miter;stroke:rgb(0%,0%,0%);stroke-opacity:1;stroke-miterlimit:10;" d="M 115.379844 91.617812 C 115.379844 92.719375 114.489219 93.61 113.387656 93.61 C 112.286094 93.61 111.395469 92.719375 111.395469 91.617812 C 111.395469 90.51625 112.286094 89.625625 113.387656 89.625625 C 114.489219 89.625625 115.379844 90.51625 115.379844 91.617812 Z M 115.379844 91.617812 " transform="matrix(1,0,0,-1,2.71,94.61)"/>
<path style="fill-rule:nonzero;fill:rgb(100%,0%,0%);fill-opacity:1;stroke-width:0.79701;stroke-linecap:butt;stroke-linejoin:miter;stroke:rgb(0%,0%,0%);stroke-opacity:1;stroke-miterlimit:10;" d="M 115.379844 -6.5775 C 115.379844 -5.475938 114.489219 -4.585313 113.387656 -4.585313 C 112.286094 -4.585313 111.395469 -5.475938 111.395469 -6.5775 C 111.395469 -7.679063 112.286094 -8.569688 113.387656 -8.569688 C 114.489219 -8.569688 115.379844 -7.679063 115.379844 -6.5775 Z M 115.379844 -6.5775 " transform="matrix(1,0,0,-1,2.71,94.61)"/>
<path style="fill:none;stroke-width:0.3985;stroke-linecap:butt;stroke-linejoin:miter;stroke:rgb(0%,0%,0%);stroke-opacity:1;stroke-miterlimit:10;" d="M 144.125937 42.520156 L 196.036094 42.520156 M 196.348594 43.719375 L 115.465781 90.418594 M 113.387656 89.227187 L 113.387656 -4.186875 M 114.586875 -4.499375 L 140.536094 40.442031 M 140.536094 44.598281 L 114.586875 89.539687 " transform="matrix(1,0,0,-1,2.71,94.61)"/>
<path style="fill:none;stroke-width:0.3985;stroke-linecap:butt;stroke-linejoin:miter;stroke:rgb(0%,0%,0%);stroke-opacity:1;stroke-miterlimit:10;" d="M 196.348594 41.320937 L 115.465781 -5.378281 " transform="matrix(1,0,0,-1,2.71,94.61)"/>
</g>
</svg>
