<?xml version="1.0" encoding="UTF-8"?>
<svg xmlns="http://www.w3.org/2000/svg" xmlns:xlink="http://www.w3.org/1999/xlink" width="247pt" height="91pt" viewBox="0 0 247 91" version="1.1">
<g id="surface1">
<path style="fill-rule:nonzero;fill:rgb(100%,0%,0%);fill-opacity:1;stroke-width:0.79701;stroke-linecap:butt;stroke-linejoin:miter;stroke:rgb(0%,0%,0%);stroke-opacity:1;stroke-miterlimit:10;" d="M 1.993125 -0.00125 C 1.993125 1.100313 1.098594 1.990938 0.0009375 1.990938 C -1.100625 1.990938 -1.99125 1.100313 -1.99125 -0.00125 C -1.99125 -1.098906 -1.100625 -1.993437 0.0009375 -1.993437 C 1.098594 -1.993437 1.993125 -1.098906 1.993125 -0.00125 Z M 1.993125 -0.00125 " transform="matrix(1,0,0,-1,2.71,88.03)"/>
<path style="fill-rule:nonzero;fill:rgb(100%,0%,0%);fill-opacity:1;stroke-width:0.79701;stroke-linecap:butt;stroke-linejoin:miter;stroke:rgb(0%,0%,0%);stroke-opacity:1;stroke-miterlimit:10;" d="M 1.993125 85.041719 C 1.993125 86.139375 1.098594 87.033906 0.0009375 87.033906 C -1.100625 87.033906 -1.99125 86.139375 -1.99125 85.041719 C -1.99125 83.940156 -1.100625 83.049531 0.0009375 83.049531 C 1.098594 83.049531 1.993125 83.940156 1.993125 85.041719 Z M 1.993125 85.041719 " transform="matrix(1,0,0,-1,2.71,88.03)"/>
<path style="fill-rule:nonzero;fill:rgb(100%,0%,0%);fill-opacity:1;stroke-width:0.79701;stroke-linecap:butt;stroke-linejoin:miter;stroke:rgb(0%,0%,0%);stroke-opacity:1;stroke-miterlimit:10;" d="M 87.032187 85.041719 C 87.032187 86.139375 86.141562 87.033906 85.04 87.033906 C 83.938437 87.033906 83.047812 86.139375 83.047812 85.041719 C 83.047812 83.940156 83.938437 83.049531 85.04 83.049531 C 86.141562 83.049531 87.032187 83.940156 87.032187 85.041719 Z M 87.032187 85.041719 " transform="matrix(1,0,0,-1,2.71,88.03)"/>
<path style="fill-rule:nonzero;fill:rgb(100%,0%,0%);fill-opacity:1;stroke-width:0.79701;stroke-linecap:butt;stroke-linejoin:miter;stroke:rgb(0%,0%,0%);stroke-opacity:1;stroke-miterlimit:10;" d="M 87.032187 -0.00125 C 87.032187 1.100313 86.141562 1.990938 85.04 1.990938 C 83.938437 1.990938 83.047812 1.100313 83.047812 -0.00125 C 83.047812 -1.098906 83.938437 -1.993437 85.04 -1.993437 C 86.141562 -1.993437 87.032187 -1.098906 87.032187 -0.00125 Z M 87.032187 -0.00125 " transform="matrix(1,0,0,-1,2.71,88.03)"/>
<path style="fill-rule:nonzero;fill:rgb(100%,0%,0%);fill-opacity:1;stroke-width:0.79701;stroke-linecap:butt;stroke-linejoin:miter;stroke:rgb(0%,0%,0%);stroke-opacity:1;stroke-miterlimit:10;" d="M 30.340781 28.346406 C 30.340781 29.447969 29.44625 30.338594 28.348594 30.338594 C 27.247031 30.338594 26.3525 29.447969 26.3525 28.346406 C 26.3525 27.244844 27.247031 26.354219 28.348594 26.354219 C 29.44625 26.354219 30.340781 27.244844 30.340781 28.346406 Z M 30.340781 28.346406 " transform="matrix(1,0,0,-1,2.71,88.03)"/>
<path style="fill-rule:nonzero;fill:rgb(100%,0%,0%);fill-opacity:1;stroke-width:0.79701;stroke-linecap:butt;stroke-linejoin:miter;stroke:rgb(0%,0%,0%);stroke-opacity:1;stroke-miterlimit:10;" d="M 30.340781 56.694063 C 30.340781 57.795625 29.44625 58.68625 28.348594 58.68625 C 27.247031 58.68625 26.3525 57.795625 26.3525 56.694063 C 26.3525 55.5925 27.247031 54.701875 28.348594 54.701875 C 29.44625 54.701875 30.340781 55.5925 30.340781 56.694063 Z M 30.340781 56.694063 " transform="matrix(1,0,0,-1,2.71,88.03)"/>
<path style="fill-rule:nonzero;fill:rgb(100%,0%,0%);fill-opacity:1;stroke-width:0.79701;stroke-linecap:butt;stroke-linejoin:miter;stroke:rgb(0%,0%,0%);stroke-opacity:1;stroke-miterlimit:10;" d="M 58.684531 56.694063 C 58.684531 57.795625 57.793906 58.68625 56.692344 58.68625 C 55.594687 58.68625 54.700156 57.795625 54.700156 56.694063 C 54.700156 55.5925 55.594687 54.701875 56.692344 54.701875 C 57.793906 54.701875 58.684531 55.5925 58.684531 56.694063 Z M 58.684531 56.694063 " transform="matrix(1,0,0,-1,2.71,88.03)"/>
<path style="fill-rule:nonzero;fill:rgb(100%,0%,0%);fill-opacity:1;stroke-width:0.79701;stroke-linecap:butt;stroke-linejoin:miter;stroke:rgb(0%,0%,0%);stroke-opacity:1;stroke-miterlimit:10;" d="M 58.684531 28.346406 C 58.684531 29.447969 57.793906 30.338594 56.692344 30.338594 C 55.594687 30.338594 54.700156 29.447969 54.700156 28.346406 C 54.700156 27.244844 55.594687 26.354219 56.692344 26.354219 C 57.793906 26.354219 58.684531 27.244844 58.684531 28.346406 Z M 58.684531 28.346406 " transform="matrix(1,0,0,-1,2.71,88.03)"/>
<path style="fill:none;stroke-width:0.79701;stroke-linecap:butt;stroke-linejoin:miter;stroke:rgb(0%,0%,0%);stroke-opacity:1;stroke-miterlimit:10;" d="M 0.0009375 2.389375 L 0.0009375 82.651094 M 2.391562 85.041719 L 82.649375 85.041719 M 85.04 82.651094 L 85.04 2.389375 M 82.649375 -0.00125 L 2.391562 -0.00125 M 1.692344 1.690156 L 26.657187 26.655 M 28.348594 30.737031 L 28.348594 54.303438 M 30.739219 56.694063 L 54.301719 56.694063 M 56.692344 54.303438 L 56.692344 30.737031 M 54.301719 28.346406 L 30.739219 28.346406 " transform="matrix(1,0,0,-1,2.71,88.03)"/>
<path style="fill:none;stroke-width:0.79701;stroke-linecap:butt;stroke-linejoin:miter;stroke:rgb(0%,0%,0%);stroke-opacity:1;stroke-miterlimit:10;" d="M 1.692344 83.350313 L 26.657187 58.385469 " transform="matrix(1,0,0,-1,2.71,88.03)"/>
<path style="fill:none;stroke-width:0.79701;stroke-linecap:butt;stroke-linejoin:miter;stroke:rgb(0%,0%,0%);stroke-opacity:1;stroke-miterlimit:10;" d="M 83.348594 83.350313 L 58.38375 58.385469 " transform="matrix(1,0,0,-1,2.71,88.03)"/>
<path style="fill:none;stroke-width:0.79701;stroke-linecap:butt;stroke-linejoin:miter;stroke:rgb(0%,0%,0%);stroke-opacity:1;stroke-miterlimit:10;" d="M 83.348594 1.690156 L 58.38375 26.655 " transform="matrix(1,0,0,-1,2.71,88.03)"/>
<path style="fill-rule:nonzero;fill:rgb(100%,0%,0%);fill-opacity:1;stroke-width:0.79701;stroke-linecap:butt;stroke-linejoin:miter;stroke:rgb(0%,0%,0%);stroke-opacity:1;stroke-miterlimit:10;" d="M 115.379844 42.518281 C 115.379844 43.619844 114.489219 44.514375 113.387656 44.514375 C 112.286094 44.514375 111.395469 43.619844 111.395469 42.518281 C 111.395469 41.420625 112.286094 40.526094 113.387656 40.526094 C 114.489219 40.526094 115.379844 41.420625 115.379844 42.518281 Z M 115.379844 42.518281 " transform="matrix(1,0,0,-1,2.71,88.03)"/>
<path style="fill-rule:nonzero;fill:rgb(100%,0%,0%);fill-opacity:1;stroke-width:0.79701;stroke-linecap:butt;stroke-linejoin:miter;stroke:rgb(0%,0%,0%);stroke-opacity:1;stroke-miterlimit:10;" d="M 157.899375 85.041719 C 157.899375 86.139375 157.00875 87.033906 155.907187 87.033906 C 154.805625 87.033906 153.915 86.139375 153.915 85.041719 C 153.915 83.940156 154.805625 83.049531 155.907187 83.049531 C 157.00875 83.049531 157.899375 83.940156 157.899375 85.041719 Z M 157.899375 85.041719 " transform="matrix(1,0,0,-1,2.71,88.03)"/>
<path style="fill-rule:nonzero;fill:rgb(100%,0%,0%);fill-opacity:1;stroke-width:0.79701;stroke-linecap:butt;stroke-linejoin:miter;stroke:rgb(0%,0%,0%);stroke-opacity:1;stroke-miterlimit:10;" d="M 200.418906 42.518281 C 200.418906 43.619844 199.528281 44.514375 198.426719 44.514375 C 197.329062 44.514375 196.434531 43.619844 196.434531 42.518281 C 196.434531 41.420625 197.329062 40.526094 198.426719 40.526094 C 199.528281 40.526094 200.418906 41.420625 200.418906 42.518281 Z M 200.418906 42.518281 " transform="matrix(1,0,0,-1,2.71,88.03)"/>
<path style="fill-rule:nonzero;fill:rgb(100%,0%,0%);fill-opacity:1;stroke-width:0.79701;stroke-linecap:butt;stroke-linejoin:miter;stroke:rgb(0%,0%,0%);stroke-opacity:1;stroke-miterlimit:10;" d="M 157.899375 -0.00125 C 157.899375 1.100313 157.00875 1.990938 155.907187 1.990938 C 154.805625 1.990938 153.915 1.100313 153.915 -0.00125 C 153.915 -1.098906 154.805625 -1.993437 155.907187 -1.993437 C 157.00875 -1.993437 157.899375 -1.098906 157.899375 -0.00125 Z M 157.899375 -0.00125 " transform="matrix(1,0,0,-1,2.71,88.03)"/>
<path style="fill-rule:nonzero;fill:rgb(100%,0%,0%);fill-opacity:1;stroke-width:0.79701;stroke-linecap:butt;stroke-linejoin:miter;stroke:rgb(0%,0%,0%);stroke-opacity:1;stroke-miterlimit:10;" d="M 157.899375 42.518281 C 157.899375 43.619844 157.00875 44.514375 155.907187 44.514375 C 154.805625 44.514375 153.915 43.619844 153.915 42.518281 C 153.915 41.420625 154.805625 40.526094 155.907187 40.526094 C 157.00875 40.526094 157.899375 41.420625 157.899375 42.518281 Z M 157.899375 42.518281 " transform="matrix(1,0,0,-1,2.71,88.03)"/>
<path style="fill-rule:nonzero;fill:rgb(100%,0%,0%);fill-opacity:1;stroke-width:0.79701;stroke-linecap:butt;stroke-linejoin:miter;stroke:rgb(0%,0%,0%);stroke-opacity:1;stroke-miterlimit:10;" d="M 200.418906 85.041719 C 200.418906 86.139375 199.528281 87.033906 198.426719 87.033906 C 197.329062 87.033906 196.434531 86.139375 196.434531 85.041719 C 196.434531 83.940156 197.329062 83.049531 198.426719 83.049531 C 199.528281 83.049531 200.418906 83.940156 200.418906 85.041719 Z M 200.418906 85.041719 " transform="matrix(1,0,0,-1,2.71,88.03)"/>
<path style="fill-rule:nonzero;fill:rgb(100%,0%,0%);fill-opacity:1;stroke-width:0.79701;stroke-linecap:butt;stroke-linejoin:miter;stroke:rgb(0%,0%,0%);stroke-opacity:1;stroke-miterlimit:10;" d="M 242.942344 42.518281 C 242.942344 43.619844 242.047812 44.514375 240.94625 44.514375 C 239.848594 44.514375 238.954062 43.619844 238.954062 42.518281 C 238.954062 41.420625 239.848594 40.526094 240.94625 40.526094 C 242.047812 40.526094 242.942344 41.420625 242.942344 42.518281 Z M 242.942344 42.518281 " transform="matrix(1,0,0,-1,2.71,88.03)"/>
<path style="fill-rule:nonzero;fill:rgb(100%,0%,0%);fill-opacity:1;stroke-width:0.79701;stroke-linecap:butt;stroke-linejoin:miter;stroke:rgb(0%,0%,0%);stroke-opacity:1;stroke-miterlimit:10;" d="M 200.418906 -0.00125 C 200.418906 1.100313 199.528281 1.990938 198.426719 1.990938 C 197.329062 1.990938 196.434531 1.100313 196.434531 -0.00125 C 196.434531 -1.098906 197.329062 -1.993437 198.426719 -1.993437 C 199.528281 -1.993437 200.418906 -1.098906 200.418906 -0.00125 Z M 200.418906 -0.00125 " transform="matrix(1,0,0,-1,2.71,88.03)"/>
<path style="fill:none;stroke-width:0.79701;stroke-linecap:butt;stroke-linejoin:miter;stroke:rgb(0%,0%,0%);stroke-opacity:1;stroke-miterlimit:10;" d="M 115.079062 44.209688 L 154.223594 83.354219 M 157.610312 83.346406 L 196.739219 44.221406 M 196.739219 40.819063 L 157.610312 1.694063 M 154.223594 1.68625 L 115.079062 40.830781 M 115.778281 42.518281 L 153.520469 42.518281 M 157.610312 44.2175 L 196.739219 83.346406 M 200.137656 83.346406 L 239.266562 44.221406 M 239.266562 40.819063 L 200.137656 1.694063 M 196.739219 1.694063 L 157.610312 40.819063 " transform="matrix(1,0,0,-1,2.71,88.03)"/>
<path style="fill:none;stroke-width:0.79701;stroke-linecap:butt;stroke-linejoin:miter;stroke:rgb(0%,0%,0%);stroke-opacity:1;stroke-miterlimit:10;" d="M 158.305625 85.045625 L 196.047812 85.045625 " transform="matrix(1,0,0,-1,2.71,88.03)"/>
<path style="fill:none;stroke-width:0.79701;stroke-linecap:butt;stroke-linejoin:miter;stroke:rgb(0%,0%,0%);stroke-opacity:1;stroke-miterlimit:10;" d="M 200.829062 42.518281 L 238.57125 42.518281 " transform="matrix(1,0,0,-1,2.71,88.03)"/>
<path style="fill:none;stroke-width:0.79701;stroke-linecap:butt;stroke-linejoin:miter;stroke:rgb(0%,0%,0%);stroke-opacity:1;stroke-miterlimit:10;" d="M 158.305625 -0.00515625 L 196.047812 -0.00515625 " transform="matrix(1,0,0,-1,2.71,88.03)"/>
</g>
</svg>
