<?xml version="1.0" encoding="UTF-8"?>
<svg xmlns="http://www.w3.org/2000/svg" xmlns:xlink="http://www.w3.org/1999/xlink" width="247pt" height="91pt" viewBox="0 0 247 91" version="1.1">
<g id="surface1">
<path style="fill-rule:nonzero;fill:rgb(100%,0%,0%);fill-opacity:1;stroke-width:0.79701;stroke-linecap:butt;stroke-linejoin:miter;stroke:rgb(0%,0%,0%);stroke-opacity:1;stroke-miterlimit:10;" d="M 1.992969 -0.00046875 C 1.992969 1.101094 1.102344 1.991719 0.00078125 1.991719 C -1.100781 1.991719 -1.991406 1.101094 -1.991406 -0.00046875 C -1.991406 -1.102031 -1.100781 -1.992656 0.00078125 -1.992656 C 1.102344 -1.992656 1.992969 -1.102031 1.992969 -0.00046875 Z M 1.992969 -0.00046875 " transform="matrix(1,0,0,-1,2.8,88.23)"/>
<path style="fill-rule:nonzero;fill:rgb(100%,0%,0%);fill-opacity:1;stroke-width:0.79701;stroke-linecap:butt;stroke-linejoin:miter;stroke:rgb(0%,0%,0%);stroke-opacity:1;stroke-miterlimit:10;" d="M 1.992969 85.038594 C 1.992969 86.140156 1.102344 87.034687 0.00078125 87.034687 C -1.100781 87.034687 -1.991406 86.140156 -1.991406 85.038594 C -1.991406 83.940937 -1.100781 83.046406 0.00078125 83.046406 C 1.102344 83.046406 1.992969 83.940937 1.992969 85.038594 Z M 1.992969 85.038594 " transform="matrix(1,0,0,-1,2.8,88.23)"/>
<path style="fill-rule:nonzero;fill:rgb(100%,0%,0%);fill-opacity:1;stroke-width:0.79701;stroke-linecap:butt;stroke-linejoin:miter;stroke:rgb(0%,0%,0%);stroke-opacity:1;stroke-miterlimit:10;" d="M 87.032031 85.038594 C 87.032031 86.140156 86.141406 87.034687 85.039844 87.034687 C 83.938281 87.034687 83.047656 86.140156 83.047656 85.038594 C 83.047656 83.940937 83.938281 83.046406 85.039844 83.046406 C 86.141406 83.046406 87.032031 83.940937 87.032031 85.038594 Z M 87.032031 85.038594 " transform="matrix(1,0,0,-1,2.8,88.23)"/>
<path style="fill-rule:nonzero;fill:rgb(100%,0%,0%);fill-opacity:1;stroke-width:0.79701;stroke-linecap:butt;stroke-linejoin:miter;stroke:rgb(0%,0%,0%);stroke-opacity:1;stroke-miterlimit:10;" d="M 87.032031 -0.00046875 C 87.032031 1.101094 86.141406 1.991719 85.039844 1.991719 C 83.938281 1.991719 83.047656 1.101094 83.047656 -0.00046875 C 83.047656 -1.102031 83.938281 -1.992656 85.039844 -1.992656 C 86.141406 -1.992656 87.032031 -1.102031 87.032031 -0.00046875 Z M 87.032031 -0.00046875 " transform="matrix(1,0,0,-1,2.8,88.23)"/>
<path style="fill-rule:nonzero;fill:rgb(100%,0%,0%);fill-opacity:1;stroke-width:0.79701;stroke-linecap:butt;stroke-linejoin:miter;stroke:rgb(0%,0%,0%);stroke-opacity:1;stroke-miterlimit:10;" d="M 30.340625 28.347187 C 30.340625 29.44875 29.446094 30.339375 28.348438 30.339375 C 27.246875 30.339375 26.352344 29.44875 26.352344 28.347187 C 26.352344 27.245625 27.246875 26.355 28.348438 26.355 C 29.446094 26.355 30.340625 27.245625 30.340625 28.347187 Z M 30.340625 28.347187 " transform="matrix(1,0,0,-1,2.8,88.23)"/>
<path style="fill-rule:nonzero;fill:rgb(100%,0%,0%);fill-opacity:1;stroke-width:0.79701;stroke-linecap:butt;stroke-linejoin:miter;stroke:rgb(0%,0%,0%);stroke-opacity:1;stroke-miterlimit:10;" d="M 30.340625 56.694844 C 30.340625 57.7925 29.446094 58.687031 28.348438 58.687031 C 27.246875 58.687031 26.352344 57.7925 26.352344 56.694844 C 26.352344 55.593281 27.246875 54.702656 28.348438 54.702656 C 29.446094 54.702656 30.340625 55.593281 30.340625 56.694844 Z M 30.340625 56.694844 " transform="matrix(1,0,0,-1,2.8,88.23)"/>
<path style="fill-rule:nonzero;fill:rgb(100%,0%,0%);fill-opacity:1;stroke-width:0.79701;stroke-linecap:butt;stroke-linejoin:miter;stroke:rgb(0%,0%,0%);stroke-opacity:1;stroke-miterlimit:10;" d="M 58.684375 56.694844 C 58.684375 57.7925 57.79375 58.687031 56.692188 58.687031 C 55.594531 58.687031 54.7 57.7925 54.7 56.694844 C 54.7 55.593281 55.594531 54.702656 56.692188 54.702656 C 57.79375 54.702656 58.684375 55.593281 58.684375 56.694844 Z M 58.684375 56.694844 " transform="matrix(1,0,0,-1,2.8,88.23)"/>
<path style="fill-rule:nonzero;fill:rgb(100%,0%,0%);fill-opacity:1;stroke-width:0.79701;stroke-linecap:butt;stroke-linejoin:miter;stroke:rgb(0%,0%,0%);stroke-opacity:1;stroke-miterlimit:10;" d="M 58.684375 28.347187 C 58.684375 29.44875 57.79375 30.339375 56.692188 30.339375 C 55.594531 30.339375 54.7 29.44875 54.7 28.347187 C 54.7 27.245625 55.594531 26.355 56.692188 26.355 C 57.79375 26.355 58.684375 27.245625 58.684375 28.347187 Z M 58.684375 28.347187 " transform="matrix(1,0,0,-1,2.8,88.23)"/>
<path style="fill:none;stroke-width:0.79701;stroke-linecap:butt;stroke-linejoin:miter;stroke:rgb(0%,0%,0%);stroke-opacity:1;stroke-miterlimit:10;" d="M 0.00078125 2.390156 L 0.00078125 82.647969 M 2.391406 85.038594 L 82.649219 85.038594 M 85.039844 82.647969 L 85.039844 2.390156 M 82.649219 -0.00046875 L 2.391406 -0.00046875 M 1.692188 1.690937 L 26.657031 26.655781 M 28.348438 30.737812 L 28.348438 54.304219 M 30.739063 56.694844 L 54.301563 56.694844 M 56.692188 54.304219 L 56.692188 30.737812 M 54.301563 28.347187 L 30.739063 28.347187 " transform="matrix(1,0,0,-1,2.8,88.23)"/>
<path style="fill:none;stroke-width:0.79701;stroke-linecap:butt;stroke-linejoin:miter;stroke:rgb(0%,0%,0%);stroke-opacity:1;stroke-miterlimit:10;" d="M 1.692188 83.351094 L 26.657031 58.38625 " transform="matrix(1,0,0,-1,2.8,88.23)"/>
<path style="fill:none;stroke-width:0.79701;stroke-linecap:butt;stroke-linejoin:miter;stroke:rgb(0%,0%,0%);stroke-opacity:1;stroke-miterlimit:10;" d="M 83.348438 83.351094 L 58.383594 58.38625 " transform="matrix(1,0,0,-1,2.8,88.23)"/>
<path style="fill:none;stroke-width:0.79701;stroke-linecap:butt;stroke-linejoin:miter;stroke:rgb(0%,0%,0%);stroke-opacity:1;stroke-miterlimit:10;" d="M 83.348438 1.690937 L 58.383594 26.655781 " transform="matrix(1,0,0,-1,2.8,88.23)"/>
<path style="fill-rule:nonzero;fill:rgb(100%,0%,0%);fill-opacity:1;stroke-width:0.79701;stroke-linecap:butt;stroke-linejoin:miter;stroke:rgb(0%,0%,0%);stroke-opacity:1;stroke-miterlimit:10;" d="M 115.379688 42.519062 C 115.379688 43.620625 114.489063 44.51125 113.3875 44.51125 C 112.285938 44.51125 111.395313 43.620625 111.395313 42.519062 C 111.395313 41.421406 112.285938 40.526875 113.3875 40.526875 C 114.489063 40.526875 115.379688 41.421406 115.379688 42.519062 Z M 115.379688 42.519062 " transform="matrix(1,0,0,-1,2.8,88.23)"/>
<path style="fill-rule:nonzero;fill:rgb(100%,0%,0%);fill-opacity:1;stroke-width:0.79701;stroke-linecap:butt;stroke-linejoin:miter;stroke:rgb(0%,0%,0%);stroke-opacity:1;stroke-miterlimit:10;" d="M 157.899219 85.038594 C 157.899219 86.140156 157.008594 87.034687 155.907031 87.034687 C 154.805469 87.034687 153.914844 86.140156 153.914844 85.038594 C 153.914844 83.940937 154.805469 83.046406 155.907031 83.046406 C 157.008594 83.046406 157.899219 83.940937 157.899219 85.038594 Z M 157.899219 85.038594 " transform="matrix(1,0,0,-1,2.8,88.23)"/>
<path style="fill-rule:nonzero;fill:rgb(100%,0%,0%);fill-opacity:1;stroke-width:0.79701;stroke-linecap:butt;stroke-linejoin:miter;stroke:rgb(0%,0%,0%);stroke-opacity:1;stroke-miterlimit:10;" d="M 200.41875 42.519062 C 200.41875 43.620625 199.528125 44.51125 198.426562 44.51125 C 197.328906 44.51125 196.434375 43.620625 196.434375 42.519062 C 196.434375 41.421406 197.328906 40.526875 198.426562 40.526875 C 199.528125 40.526875 200.41875 41.421406 200.41875 42.519062 Z M 200.41875 42.519062 " transform="matrix(1,0,0,-1,2.8,88.23)"/>
<path style="fill-rule:nonzero;fill:rgb(100%,0%,0%);fill-opacity:1;stroke-width:0.79701;stroke-linecap:butt;stroke-linejoin:miter;stroke:rgb(0%,0%,0%);stroke-opacity:1;stroke-miterlimit:10;" d="M 157.899219 -0.00046875 C 157.899219 1.101094 157.008594 1.991719 155.907031 1.991719 C 154.805469 1.991719 153.914844 1.101094 153.914844 -0.00046875 C 153.914844 -1.102031 154.805469 -1.992656 155.907031 -1.992656 C 157.008594 -1.992656 157.899219 -1.102031 157.899219 -0.00046875 Z M 157.899219 -0.00046875 " transform="matrix(1,0,0,-1,2.8,88.23)"/>
<path style="fill-rule:nonzero;fill:rgb(100%,0%,0%);fill-opacity:1;stroke-width:0.79701;stroke-linecap:butt;stroke-linejoin:miter;stroke:rgb(0%,0%,0%);stroke-opacity:1;stroke-miterlimit:10;" d="M 157.899219 42.519062 C 157.899219 43.620625 157.008594 44.51125 155.907031 44.51125 C 154.805469 44.51125 153.914844 43.620625 153.914844 42.519062 C 153.914844 41.421406 154.805469 40.526875 155.907031 40.526875 C 157.008594 40.526875 157.899219 41.421406 157.899219 42.519062 Z M 157.899219 42.519062 " transform="matrix(1,0,0,-1,2.8,88.23)"/>
<path style="fill-rule:nonzero;fill:rgb(100%,0%,0%);fill-opacity:1;stroke-width:0.79701;stroke-linecap:butt;stroke-linejoin:miter;stroke:rgb(0%,0%,0%);stroke-opacity:1;stroke-miterlimit:10;" d="M 200.41875 85.038594 C 200.41875 86.140156 199.528125 87.034687 198.426562 87.034687 C 197.328906 87.034687 196.434375 86.140156 196.434375 85.038594 C 196.434375 83.940937 197.328906 83.046406 198.426562 83.046406 C 199.528125 83.046406 200.41875 83.940937 200.41875 85.038594 Z M 200.41875 85.038594 " transform="matrix(1,0,0,-1,2.8,88.23)"/>
<path style="fill-rule:nonzero;fill:rgb(100%,0%,0%);fill-opacity:1;stroke-width:0.79701;stroke-linecap:butt;stroke-linejoin:miter;stroke:rgb(0%,0%,0%);stroke-opacity:1;stroke-miterlimit:10;" d="M 242.942187 42.519062 C 242.942187 43.620625 242.047656 44.51125 240.946094 44.51125 C 239.848437 44.51125 238.953906 43.620625 238.953906 42.519062 C 238.953906 41.421406 239.848437 40.526875 240.946094 40.526875 C 242.047656 40.526875 242.942187 41.421406 242.942187 42.519062 Z M 242.942187 42.519062 " transform="matrix(1,0,0,-1,2.8,88.23)"/>
<path style="fill-rule:nonzero;fill:rgb(100%,0%,0%);fill-opacity:1;stroke-width:0.79701;stroke-linecap:butt;stroke-linejoin:miter;stroke:rgb(0%,0%,0%);stroke-opacity:1;stroke-miterlimit:10;" d="M 200.41875 -0.00046875 C 200.41875 1.101094 199.528125 1.991719 198.426562 1.991719 C 197.328906 1.991719 196.434375 1.101094 196.434375 -0.00046875 C 196.434375 -1.102031 197.328906 -1.992656 198.426562 -1.992656 C 199.528125 -1.992656 200.41875 -1.102031 200.41875 -0.00046875 Z M 200.41875 -0.00046875 " transform="matrix(1,0,0,-1,2.8,88.23)"/>
<path style="fill:none;stroke-width:0.79701;stroke-linecap:butt;stroke-linejoin:miter;stroke:rgb(0%,0%,0%);stroke-opacity:1;stroke-miterlimit:10;" d="M 115.078906 44.210469 L 154.223437 83.355 M 157.610156 83.347187 L 196.739062 44.218281 M 196.739062 40.819844 L 157.610156 1.694844 M 154.223437 1.687031 L 115.078906 40.827656 M 115.778125 42.519062 L 153.520312 42.519062 M 157.610156 44.218281 L 196.739062 83.347187 M 200.1375 83.347187 L 239.266406 44.218281 M 239.266406 40.819844 L 200.1375 1.694844 M 196.739062 1.694844 L 157.610156 40.819844 " transform="matrix(1,0,0,-1,2.8,88.23)"/>
<path style="fill:none;stroke-width:0.79701;stroke-linecap:butt;stroke-linejoin:miter;stroke:rgb(0%,0%,0%);stroke-opacity:1;stroke-miterlimit:10;" d="M 158.305469 85.046406 L 196.047656 85.046406 " transform="matrix(1,0,0,-1,2.8,88.23)"/>
<path style="fill:none;stroke-width:0.79701;stroke-linecap:butt;stroke-linejoin:miter;stroke:rgb(0%,0%,0%);stroke-opacity:1;stroke-miterlimit:10;" d="M 200.828906 42.519062 L 238.571094 42.519062 " transform="matrix(1,0,0,-1,2.8,88.23)"/>
<path style="fill:none;stroke-width:0.79701;stroke-linecap:butt;stroke-linejoin:miter;stroke:rgb(0%,0%,0%);stroke-opacity:1;stroke-miterlimit:10;" d="M 158.305469 -0.004375 L 196.047656 -0.004375 " transform="matrix(1,0,0,-1,2.8,88.23)"/>
</g>
</svg>
