<?xml version="1.0" encoding="UTF-8"?>
<svg xmlns="http://www.w3.org/2000/svg" xmlns:xlink="http://www.w3.org/1999/xlink" width="120pt" height="64pt" viewBox="0 0 120 64" version="1.1">
<g id="surface1">
<path style="fill-rule:nonzero;fill:rgb(100%,0%,0%);fill-opacity:1;stroke-width:0.79701;stroke-linecap:butt;stroke-linejoin:miter;stroke:rgb(0%,0%,0%);stroke-opacity:1;stroke-miterlimit:10;" d="M 1.992125 -0.0011875 C 1.992125 1.100375 1.1015 1.991 -0.0000625 1.991 C -1.101625 1.991 -1.99225 1.100375 -1.99225 -0.0011875 C -1.99225 -1.098844 -1.101625 -1.993375 -0.0000625 -1.993375 C 1.1015 -1.993375 1.992125 -1.098844 1.992125 -0.0011875 Z M 1.992125 -0.0011875 " transform="matrix(1,0,0,-1,3.086,3.991)"/>
<path style="fill-rule:nonzero;fill:rgb(100%,0%,0%);fill-opacity:1;stroke-width:0.79701;stroke-linecap:butt;stroke-linejoin:miter;stroke:rgb(0%,0%,0%);stroke-opacity:1;stroke-miterlimit:10;" d="M 58.687438 -0.0011875 C 58.687438 1.100375 57.792906 1.991 56.69525 1.991 C 55.593688 1.991 54.699156 1.100375 54.699156 -0.0011875 C 54.699156 -1.098844 55.593688 -1.993375 56.69525 -1.993375 C 57.792906 -1.993375 58.687438 -1.098844 58.687438 -0.0011875 Z M 58.687438 -0.0011875 " transform="matrix(1,0,0,-1,3.086,3.991)"/>
<path style="fill-rule:nonzero;fill:rgb(100%,0%,0%);fill-opacity:1;stroke-width:0.79701;stroke-linecap:butt;stroke-linejoin:miter;stroke:rgb(0%,0%,0%);stroke-opacity:1;stroke-miterlimit:10;" d="M 115.378844 -0.0011875 C 115.378844 1.100375 114.488219 1.991 113.386656 1.991 C 112.285094 1.991 111.394469 1.100375 111.394469 -0.0011875 C 111.394469 -1.098844 112.285094 -1.993375 113.386656 -1.993375 C 114.488219 -1.993375 115.378844 -1.098844 115.378844 -0.0011875 Z M 115.378844 -0.0011875 " transform="matrix(1,0,0,-1,3.086,3.991)"/>
<path style="fill-rule:nonzero;fill:rgb(100%,0%,0%);fill-opacity:1;stroke-width:0.79701;stroke-linecap:butt;stroke-linejoin:miter;stroke:rgb(0%,0%,0%);stroke-opacity:1;stroke-miterlimit:10;" d="M 30.339781 -56.692594 C 30.339781 -55.594938 29.449156 -54.700406 28.347594 -54.700406 C 27.246031 -54.700406 26.355406 -55.594938 26.355406 -56.692594 C 26.355406 -57.794156 27.246031 -58.684781 28.347594 -58.684781 C 29.449156 -58.684781 30.339781 -57.794156 30.339781 -56.692594 Z M 30.339781 -56.692594 " transform="matrix(1,0,0,-1,3.086,3.991)"/>
<path style="fill-rule:nonzero;fill:rgb(100%,0%,0%);fill-opacity:1;stroke-width:0.79701;stroke-linecap:butt;stroke-linejoin:miter;stroke:rgb(0%,0%,0%);stroke-opacity:1;stroke-miterlimit:10;" d="M 87.031188 -56.692594 C 87.031188 -55.594938 86.140563 -54.700406 85.039 -54.700406 C 83.941344 -54.700406 83.046813 -55.594938 83.046813 -56.692594 C 83.046813 -57.794156 83.941344 -58.684781 85.039 -58.684781 C 86.140563 -58.684781 87.031188 -57.794156 87.031188 -56.692594 Z M 87.031188 -56.692594 " transform="matrix(1,0,0,-1,3.086,3.991)"/>
<path style="fill:none;stroke-width:0.3985;stroke-linecap:butt;stroke-linejoin:miter;stroke:rgb(0%,0%,0%);stroke-opacity:1;stroke-miterlimit:10;" d="M 1.074156 -2.145719 L 27.277281 -54.555875 M 29.421813 -54.548063 L 55.624938 -2.137906 M 57.765563 -2.145719 L 83.972594 -54.555875 M 86.113219 -54.548063 L 112.316344 -2.137906 M 111.390563 -1.329313 L 30.343688 -55.364469 " transform="matrix(1,0,0,-1,3.086,3.991)"/>
</g>
</svg>
