<?xml version="1.0" encoding="UTF-8"?>
<svg xmlns="http://www.w3.org/2000/svg" xmlns:xlink="http://www.w3.org/1999/xlink" width="248pt" height="93pt" viewBox="0 0 248 93" version="1.1">
<g id="surface1">
<path style="fill-rule:nonzero;fill:rgb(100%,0%,0%);fill-opacity:1;stroke-width:0.79701;stroke-linecap:butt;stroke-linejoin:miter;stroke:rgb(0%,0%,0%);stroke-opacity:1;stroke-miterlimit:10;" d="M 1.992125 -0.00125 C 1.992125 1.100313 1.1015 1.990938 -0.0000625 1.990938 C -1.101625 1.990938 -1.99225 1.100313 -1.99225 -0.00125 C -1.99225 -1.098906 -1.101625 -1.993437 -0.0000625 -1.993437 C 1.1015 -1.993437 1.992125 -1.098906 1.992125 -0.00125 Z M 1.992125 -0.00125 " transform="matrix(1,0,0,-1,3.086,89.03)"/>
<path style="fill-rule:nonzero;fill:rgb(100%,0%,0%);fill-opacity:1;stroke-width:0.79701;stroke-linecap:butt;stroke-linejoin:miter;stroke:rgb(0%,0%,0%);stroke-opacity:1;stroke-miterlimit:10;" d="M 1.992125 85.041719 C 1.992125 86.139375 1.1015 87.033906 -0.0000625 87.033906 C -1.101625 87.033906 -1.99225 86.139375 -1.99225 85.041719 C -1.99225 83.940156 -1.101625 83.049531 -0.0000625 83.049531 C 1.1015 83.049531 1.992125 83.940156 1.992125 85.041719 Z M 1.992125 85.041719 " transform="matrix(1,0,0,-1,3.086,89.03)"/>
<path style="fill-rule:nonzero;fill:rgb(100%,0%,0%);fill-opacity:1;stroke-width:0.79701;stroke-linecap:butt;stroke-linejoin:miter;stroke:rgb(0%,0%,0%);stroke-opacity:1;stroke-miterlimit:10;" d="M 87.031188 85.041719 C 87.031188 86.139375 86.140563 87.033906 85.039 87.033906 C 83.941344 87.033906 83.046813 86.139375 83.046813 85.041719 C 83.046813 83.940156 83.941344 83.049531 85.039 83.049531 C 86.140563 83.049531 87.031188 83.940156 87.031188 85.041719 Z M 87.031188 85.041719 " transform="matrix(1,0,0,-1,3.086,89.03)"/>
<path style="fill-rule:nonzero;fill:rgb(100%,0%,0%);fill-opacity:1;stroke-width:0.79701;stroke-linecap:butt;stroke-linejoin:miter;stroke:rgb(0%,0%,0%);stroke-opacity:1;stroke-miterlimit:10;" d="M 87.031188 -0.00125 C 87.031188 1.100313 86.140563 1.990938 85.039 1.990938 C 83.941344 1.990938 83.046813 1.100313 83.046813 -0.00125 C 83.046813 -1.098906 83.941344 -1.993437 85.039 -1.993437 C 86.140563 -1.993437 87.031188 -1.098906 87.031188 -0.00125 Z M 87.031188 -0.00125 " transform="matrix(1,0,0,-1,3.086,89.03)"/>
<path style="fill-rule:nonzero;fill:rgb(100%,0%,0%);fill-opacity:1;stroke-width:0.79701;stroke-linecap:butt;stroke-linejoin:miter;stroke:rgb(0%,0%,0%);stroke-opacity:1;stroke-miterlimit:10;" d="M 30.339781 28.346406 C 30.339781 29.447969 29.449156 30.338594 28.347594 30.338594 C 27.246031 30.338594 26.355406 29.447969 26.355406 28.346406 C 26.355406 27.244844 27.246031 26.354219 28.347594 26.354219 C 29.449156 26.354219 30.339781 27.244844 30.339781 28.346406 Z M 30.339781 28.346406 " transform="matrix(1,0,0,-1,3.086,89.03)"/>
<path style="fill-rule:nonzero;fill:rgb(100%,0%,0%);fill-opacity:1;stroke-width:0.79701;stroke-linecap:butt;stroke-linejoin:miter;stroke:rgb(0%,0%,0%);stroke-opacity:1;stroke-miterlimit:10;" d="M 30.339781 56.694063 C 30.339781 57.795625 29.449156 58.68625 28.347594 58.68625 C 27.246031 58.68625 26.355406 57.795625 26.355406 56.694063 C 26.355406 55.5925 27.246031 54.701875 28.347594 54.701875 C 29.449156 54.701875 30.339781 55.5925 30.339781 56.694063 Z M 30.339781 56.694063 " transform="matrix(1,0,0,-1,3.086,89.03)"/>
<path style="fill-rule:nonzero;fill:rgb(100%,0%,0%);fill-opacity:1;stroke-width:0.79701;stroke-linecap:butt;stroke-linejoin:miter;stroke:rgb(0%,0%,0%);stroke-opacity:1;stroke-miterlimit:10;" d="M 58.687438 56.694063 C 58.687438 57.795625 57.792906 58.68625 56.69525 58.68625 C 55.593688 58.68625 54.699156 57.795625 54.699156 56.694063 C 54.699156 55.5925 55.593688 54.701875 56.69525 54.701875 C 57.792906 54.701875 58.687438 55.5925 58.687438 56.694063 Z M 58.687438 56.694063 " transform="matrix(1,0,0,-1,3.086,89.03)"/>
<path style="fill-rule:nonzero;fill:rgb(100%,0%,0%);fill-opacity:1;stroke-width:0.79701;stroke-linecap:butt;stroke-linejoin:miter;stroke:rgb(0%,0%,0%);stroke-opacity:1;stroke-miterlimit:10;" d="M 58.687438 28.346406 C 58.687438 29.447969 57.792906 30.338594 56.69525 30.338594 C 55.593688 30.338594 54.699156 29.447969 54.699156 28.346406 C 54.699156 27.244844 55.593688 26.354219 56.69525 26.354219 C 57.792906 26.354219 58.687438 27.244844 58.687438 28.346406 Z M 58.687438 28.346406 " transform="matrix(1,0,0,-1,3.086,89.03)"/>
<path style="fill:none;stroke-width:0.79701;stroke-linecap:butt;stroke-linejoin:miter;stroke:rgb(0%,0%,0%);stroke-opacity:1;stroke-miterlimit:10;" d="M -0.0000625 2.389375 L -0.0000625 82.651094 M 2.390563 85.041719 L 82.648375 85.041719 M 85.039 82.651094 L 85.039 2.389375 M 82.648375 -0.00125 L 2.390563 -0.00125 M 1.691344 1.690156 L 26.656188 26.655 M 28.347594 30.737031 L 28.347594 54.303438 M 30.738219 56.694063 L 54.300719 56.694063 M 56.69525 54.303438 L 56.69525 30.737031 M 54.300719 28.346406 L 30.738219 28.346406 " transform="matrix(1,0,0,-1,3.086,89.03)"/>
<path style="fill:none;stroke-width:0.79701;stroke-linecap:butt;stroke-linejoin:miter;stroke:rgb(0%,0%,0%);stroke-opacity:1;stroke-miterlimit:10;" d="M 1.691344 83.350313 L 26.656188 58.385469 " transform="matrix(1,0,0,-1,3.086,89.03)"/>
<path style="fill:none;stroke-width:0.79701;stroke-linecap:butt;stroke-linejoin:miter;stroke:rgb(0%,0%,0%);stroke-opacity:1;stroke-miterlimit:10;" d="M 83.3515 83.350313 L 58.38275 58.385469 " transform="matrix(1,0,0,-1,3.086,89.03)"/>
<path style="fill:none;stroke-width:0.79701;stroke-linecap:butt;stroke-linejoin:miter;stroke:rgb(0%,0%,0%);stroke-opacity:1;stroke-miterlimit:10;" d="M 83.3515 1.690156 L 58.38275 26.655 " transform="matrix(1,0,0,-1,3.086,89.03)"/>
<path style="fill-rule:nonzero;fill:rgb(100%,0%,0%);fill-opacity:1;stroke-width:0.79701;stroke-linecap:butt;stroke-linejoin:miter;stroke:rgb(0%,0%,0%);stroke-opacity:1;stroke-miterlimit:10;" d="M 115.378844 42.518281 C 115.378844 43.619844 114.488219 44.514375 113.386656 44.514375 C 112.285094 44.514375 111.394469 43.619844 111.394469 42.518281 C 111.394469 41.420625 112.285094 40.526094 113.386656 40.526094 C 114.488219 40.526094 115.378844 41.420625 115.378844 42.518281 Z M 115.378844 42.518281 " transform="matrix(1,0,0,-1,3.086,89.03)"/>
<path style="fill-rule:nonzero;fill:rgb(100%,0%,0%);fill-opacity:1;stroke-width:0.79701;stroke-linecap:butt;stroke-linejoin:miter;stroke:rgb(0%,0%,0%);stroke-opacity:1;stroke-miterlimit:10;" d="M 157.898375 85.041719 C 157.898375 86.139375 157.00775 87.033906 155.906187 87.033906 C 154.808531 87.033906 153.914 86.139375 153.914 85.041719 C 153.914 83.940156 154.808531 83.049531 155.906187 83.049531 C 157.00775 83.049531 157.898375 83.940156 157.898375 85.041719 Z M 157.898375 85.041719 " transform="matrix(1,0,0,-1,3.086,89.03)"/>
<path style="fill-rule:nonzero;fill:rgb(100%,0%,0%);fill-opacity:1;stroke-width:0.79701;stroke-linecap:butt;stroke-linejoin:miter;stroke:rgb(0%,0%,0%);stroke-opacity:1;stroke-miterlimit:10;" d="M 200.421812 42.518281 C 200.421812 43.619844 199.527281 44.514375 198.429625 44.514375 C 197.328062 44.514375 196.433531 43.619844 196.433531 42.518281 C 196.433531 41.420625 197.328062 40.526094 198.429625 40.526094 C 199.527281 40.526094 200.421812 41.420625 200.421812 42.518281 Z M 200.421812 42.518281 " transform="matrix(1,0,0,-1,3.086,89.03)"/>
<path style="fill-rule:nonzero;fill:rgb(100%,0%,0%);fill-opacity:1;stroke-width:0.79701;stroke-linecap:butt;stroke-linejoin:miter;stroke:rgb(0%,0%,0%);stroke-opacity:1;stroke-miterlimit:10;" d="M 157.898375 -0.00125 C 157.898375 1.100313 157.00775 1.990938 155.906187 1.990938 C 154.808531 1.990938 153.914 1.100313 153.914 -0.00125 C 153.914 -1.098906 154.808531 -1.993437 155.906187 -1.993437 C 157.00775 -1.993437 157.898375 -1.098906 157.898375 -0.00125 Z M 157.898375 -0.00125 " transform="matrix(1,0,0,-1,3.086,89.03)"/>
<path style="fill-rule:nonzero;fill:rgb(100%,0%,0%);fill-opacity:1;stroke-width:0.79701;stroke-linecap:butt;stroke-linejoin:miter;stroke:rgb(0%,0%,0%);stroke-opacity:1;stroke-miterlimit:10;" d="M 157.898375 42.518281 C 157.898375 43.619844 157.00775 44.514375 155.906187 44.514375 C 154.808531 44.514375 153.914 43.619844 153.914 42.518281 C 153.914 41.420625 154.808531 40.526094 155.906187 40.526094 C 157.00775 40.526094 157.898375 41.420625 157.898375 42.518281 Z M 157.898375 42.518281 " transform="matrix(1,0,0,-1,3.086,89.03)"/>
<path style="fill-rule:nonzero;fill:rgb(100%,0%,0%);fill-opacity:1;stroke-width:0.79701;stroke-linecap:butt;stroke-linejoin:miter;stroke:rgb(0%,0%,0%);stroke-opacity:1;stroke-miterlimit:10;" d="M 200.421812 85.041719 C 200.421812 86.139375 199.527281 87.033906 198.429625 87.033906 C 197.328062 87.033906 196.433531 86.139375 196.433531 85.041719 C 196.433531 83.940156 197.328062 83.049531 198.429625 83.049531 C 199.527281 83.049531 200.421812 83.940156 200.421812 85.041719 Z M 200.421812 85.041719 " transform="matrix(1,0,0,-1,3.086,89.03)"/>
<path style="fill-rule:nonzero;fill:rgb(100%,0%,0%);fill-opacity:1;stroke-width:0.79701;stroke-linecap:butt;stroke-linejoin:miter;stroke:rgb(0%,0%,0%);stroke-opacity:1;stroke-miterlimit:10;" d="M 242.941344 42.518281 C 242.941344 43.619844 242.046812 44.514375 240.949156 44.514375 C 239.847594 44.514375 238.956969 43.619844 238.956969 42.518281 C 238.956969 41.420625 239.847594 40.526094 240.949156 40.526094 C 242.046812 40.526094 242.941344 41.420625 242.941344 42.518281 Z M 242.941344 42.518281 " transform="matrix(1,0,0,-1,3.086,89.03)"/>
<path style="fill-rule:nonzero;fill:rgb(100%,0%,0%);fill-opacity:1;stroke-width:0.79701;stroke-linecap:butt;stroke-linejoin:miter;stroke:rgb(0%,0%,0%);stroke-opacity:1;stroke-miterlimit:10;" d="M 200.421812 -0.00125 C 200.421812 1.100313 199.527281 1.990938 198.429625 1.990938 C 197.328062 1.990938 196.433531 1.100313 196.433531 -0.00125 C 196.433531 -1.098906 197.328062 -1.993437 198.429625 -1.993437 C 199.527281 -1.993437 200.421812 -1.098906 200.421812 -0.00125 Z M 200.421812 -0.00125 " transform="matrix(1,0,0,-1,3.086,89.03)"/>
<path style="fill:none;stroke-width:0.79701;stroke-linecap:butt;stroke-linejoin:miter;stroke:rgb(0%,0%,0%);stroke-opacity:1;stroke-miterlimit:10;" d="M 115.078063 44.209688 L 154.222594 83.354219 M 157.613219 83.346406 L 196.738219 44.221406 M 196.738219 40.819063 L 157.613219 1.694063 M 154.222594 1.68625 L 115.078063 40.830781 M 115.777281 42.518281 L 153.519469 42.518281 M 157.613219 44.2175 L 196.738219 83.346406 M 200.136656 83.346406 L 239.265562 44.221406 M 239.265562 40.819063 L 200.136656 1.694063 M 196.738219 1.694063 L 157.613219 40.819063 " transform="matrix(1,0,0,-1,3.086,89.03)"/>
<path style="fill:none;stroke-width:0.79701;stroke-linecap:butt;stroke-linejoin:miter;stroke:rgb(0%,0%,0%);stroke-opacity:1;stroke-miterlimit:10;" d="M 158.304625 85.045625 L 196.046812 85.045625 " transform="matrix(1,0,0,-1,3.086,89.03)"/>
<path style="fill:none;stroke-width:0.79701;stroke-linecap:butt;stroke-linejoin:miter;stroke:rgb(0%,0%,0%);stroke-opacity:1;stroke-miterlimit:10;" d="M 200.828062 42.518281 L 238.57025 42.518281 " transform="matrix(1,0,0,-1,3.086,89.03)"/>
<path style="fill:none;stroke-width:0.79701;stroke-linecap:butt;stroke-linejoin:miter;stroke:rgb(0%,0%,0%);stroke-opacity:1;stroke-miterlimit:10;" d="M 158.304625 -0.00515625 L 196.046812 -0.00515625 " transform="matrix(1,0,0,-1,3.086,89.03)"/>
</g>
</svg>
