<?xml version="1.0" encoding="UTF-8"?>
<svg xmlns="http://www.w3.org/2000/svg" xmlns:xlink="http://www.w3.org/1999/xlink" width="308pt" height="128pt" viewBox="0 0 308 128" version="1.1">
<g id="surface1">
<path style="fill:none;stroke-width:0.3985;stroke-linecap:butt;stroke-linejoin:miter;stroke:rgb(0%,0%,0%);stroke-opacity:1;stroke-miterlimit:10;" d="M 8.467031 19.841406 C 8.467031 24.521094 4.677969 28.310156 -0.00171875 28.310156 C -4.6775 28.310156 -8.466563 24.521094 -8.466563 19.841406 C -8.466563 15.165625 -4.6775 11.372656 -0.00171875 11.372656 C 4.677969 11.372656 8.467031 15.165625 8.467031 19.841406 Z M 8.467031 19.841406 " transform="matrix(1,0,0,-1,8.99,83.65)"/>
<path style="fill:none;stroke-width:0.3985;stroke-linecap:butt;stroke-linejoin:miter;stroke:rgb(0%,0%,0%);stroke-opacity:1;stroke-miterlimit:10;" d="M 28.310781 39.685156 C 28.310781 44.360937 24.517812 48.153906 19.842031 48.153906 C 15.16625 48.153906 11.373281 44.360937 11.373281 39.685156 C 11.373281 35.009375 15.16625 31.216406 19.842031 31.216406 C 24.517812 31.216406 28.310781 35.009375 28.310781 39.685156 Z M 28.310781 39.685156 " transform="matrix(1,0,0,-1,8.99,83.65)"/>
<path style="fill:none;stroke-width:0.3985;stroke-linecap:butt;stroke-linejoin:miter;stroke:rgb(0%,0%,0%);stroke-opacity:1;stroke-miterlimit:10;" d="M 67.998281 39.685156 C 67.998281 44.360937 64.205312 48.153906 59.529531 48.153906 C 54.849844 48.153906 51.060781 44.360937 51.060781 39.685156 C 51.060781 35.009375 54.849844 31.216406 59.529531 31.216406 C 64.205312 31.216406 67.998281 35.009375 67.998281 39.685156 Z M 67.998281 39.685156 " transform="matrix(1,0,0,-1,8.99,83.65)"/>
<path style="fill:none;stroke-width:0.3985;stroke-linecap:butt;stroke-linejoin:miter;stroke:rgb(0%,0%,0%);stroke-opacity:1;stroke-miterlimit:10;" d="M 87.838125 19.841406 C 87.838125 24.521094 84.049062 28.310156 79.369375 28.310156 C 74.693594 28.310156 70.900625 24.521094 70.900625 19.841406 C 70.900625 15.165625 74.693594 11.372656 79.369375 11.372656 C 84.049062 11.372656 87.838125 15.165625 87.838125 19.841406 Z M 87.838125 19.841406 " transform="matrix(1,0,0,-1,8.99,83.65)"/>
<path style="fill:none;stroke-width:0.3985;stroke-linecap:butt;stroke-linejoin:miter;stroke:rgb(0%,0%,0%);stroke-opacity:1;stroke-miterlimit:10;" d="M 67.998281 0.0015625 C 67.998281 4.677344 64.205312 8.466406 59.529531 8.466406 C 54.849844 8.466406 51.060781 4.677344 51.060781 0.0015625 C 51.060781 -4.678125 54.849844 -8.467188 59.529531 -8.467188 C 64.205312 -8.467188 67.998281 -4.678125 67.998281 0.0015625 Z M 67.998281 0.0015625 " transform="matrix(1,0,0,-1,8.99,83.65)"/>
<path style="fill:none;stroke-width:0.3985;stroke-linecap:butt;stroke-linejoin:miter;stroke:rgb(0%,0%,0%);stroke-opacity:1;stroke-miterlimit:10;" d="M 28.310781 0.0015625 C 28.310781 4.677344 24.517812 8.466406 19.842031 8.466406 C 15.16625 8.466406 11.373281 4.677344 11.373281 0.0015625 C 11.373281 -4.678125 15.16625 -8.467188 19.842031 -8.467188 C 24.517812 -8.467188 28.310781 -4.678125 28.310781 0.0015625 Z M 28.310781 0.0015625 " transform="matrix(1,0,0,-1,8.99,83.65)"/>
<path style="fill:none;stroke-width:0.3985;stroke-linecap:butt;stroke-linejoin:miter;stroke:rgb(0%,0%,0%);stroke-opacity:1;stroke-miterlimit:10;" d="M 6.127187 25.970312 L 13.713125 33.55625 " transform="matrix(1,0,0,-1,8.99,83.65)"/>
<path style="fill:none;stroke-width:0.3985;stroke-linecap:butt;stroke-linejoin:miter;stroke:rgb(0%,0%,0%);stroke-opacity:1;stroke-miterlimit:10;" d="M 6.127187 13.7125 L 13.713125 6.130469 " transform="matrix(1,0,0,-1,8.99,83.65)"/>
<path style="fill:none;stroke-width:0.3985;stroke-linecap:butt;stroke-linejoin:miter;stroke:rgb(0%,0%,0%);stroke-opacity:1;stroke-dasharray:2.98883,2.98883;stroke-miterlimit:10;" d="M 8.66625 19.841406 L 70.705312 19.841406 " transform="matrix(1,0,0,-1,8.99,83.65)"/>
<path style="fill:none;stroke-width:0.3985;stroke-linecap:butt;stroke-linejoin:miter;stroke:rgb(0%,0%,0%);stroke-opacity:1;stroke-miterlimit:10;" d="M 50.861562 39.685156 L 28.51 39.685156 " transform="matrix(1,0,0,-1,8.99,83.65)"/>
<path style="fill:none;stroke-width:0.3985;stroke-linecap:butt;stroke-linejoin:miter;stroke:rgb(0%,0%,0%);stroke-opacity:1;stroke-miterlimit:10;" d="M 65.689687 33.525 L 73.213125 26.001562 " transform="matrix(1,0,0,-1,8.99,83.65)"/>
<path style="fill:none;stroke-width:0.3985;stroke-linecap:butt;stroke-linejoin:miter;stroke:rgb(0%,0%,0%);stroke-opacity:1;stroke-miterlimit:10;" d="M 50.861562 0.0015625 L 28.51 0.0015625 " transform="matrix(1,0,0,-1,8.99,83.65)"/>
<path style="fill:none;stroke-width:0.3985;stroke-linecap:butt;stroke-linejoin:miter;stroke:rgb(0%,0%,0%);stroke-opacity:1;stroke-miterlimit:10;" d="M 65.689687 6.157812 L 73.213125 13.685156 " transform="matrix(1,0,0,-1,8.99,83.65)"/>
<path style="fill:none;stroke-width:0.3985;stroke-linecap:butt;stroke-linejoin:miter;stroke:rgb(0%,0%,0%);stroke-opacity:1;stroke-miterlimit:10;" d="M 107.681875 19.841406 C 107.681875 24.521094 103.888906 28.310156 99.213125 28.310156 C 94.537344 28.310156 90.744375 24.521094 90.744375 19.841406 C 90.744375 15.165625 94.537344 11.372656 99.213125 11.372656 C 103.888906 11.372656 107.681875 15.165625 107.681875 19.841406 Z M 107.681875 19.841406 " transform="matrix(1,0,0,-1,8.99,83.65)"/>
<path style="fill:none;stroke-width:0.3985;stroke-linecap:butt;stroke-linejoin:miter;stroke:rgb(0%,0%,0%);stroke-opacity:1;stroke-miterlimit:10;" d="M 127.525625 39.685156 C 127.525625 44.360937 123.732656 48.153906 119.056875 48.153906 C 114.377187 48.153906 110.588125 44.360937 110.588125 39.685156 C 110.588125 35.009375 114.377187 31.216406 119.056875 31.216406 C 123.732656 31.216406 127.525625 35.009375 127.525625 39.685156 Z M 127.525625 39.685156 " transform="matrix(1,0,0,-1,8.99,83.65)"/>
<path style="fill:none;stroke-width:0.3985;stroke-linecap:butt;stroke-linejoin:miter;stroke:rgb(0%,0%,0%);stroke-opacity:1;stroke-miterlimit:10;" d="M 167.209219 39.685156 C 167.209219 44.360937 163.420156 48.153906 158.740469 48.153906 C 154.064687 48.153906 150.271719 44.360937 150.271719 39.685156 C 150.271719 35.009375 154.064687 31.216406 158.740469 31.216406 C 163.420156 31.216406 167.209219 35.009375 167.209219 39.685156 Z M 167.209219 39.685156 " transform="matrix(1,0,0,-1,8.99,83.65)"/>
<path style="fill:none;stroke-width:0.3985;stroke-linecap:butt;stroke-linejoin:miter;stroke:rgb(0%,0%,0%);stroke-opacity:1;stroke-miterlimit:10;" d="M 187.052969 19.841406 C 187.052969 24.521094 183.26 28.310156 178.584219 28.310156 C 173.908437 28.310156 170.115469 24.521094 170.115469 19.841406 C 170.115469 15.165625 173.908437 11.372656 178.584219 11.372656 C 183.26 11.372656 187.052969 15.165625 187.052969 19.841406 Z M 187.052969 19.841406 " transform="matrix(1,0,0,-1,8.99,83.65)"/>
<path style="fill:none;stroke-width:0.3985;stroke-linecap:butt;stroke-linejoin:miter;stroke:rgb(0%,0%,0%);stroke-opacity:1;stroke-miterlimit:10;" d="M 167.209219 0.0015625 C 167.209219 4.677344 163.420156 8.466406 158.740469 8.466406 C 154.064687 8.466406 150.271719 4.677344 150.271719 0.0015625 C 150.271719 -4.678125 154.064687 -8.467188 158.740469 -8.467188 C 163.420156 -8.467188 167.209219 -4.678125 167.209219 0.0015625 Z M 167.209219 0.0015625 " transform="matrix(1,0,0,-1,8.99,83.65)"/>
<path style="fill:none;stroke-width:0.3985;stroke-linecap:butt;stroke-linejoin:miter;stroke:rgb(0%,0%,0%);stroke-opacity:1;stroke-miterlimit:10;" d="M 127.525625 0.0015625 C 127.525625 4.677344 123.732656 8.466406 119.056875 8.466406 C 114.377187 8.466406 110.588125 4.677344 110.588125 0.0015625 C 110.588125 -4.678125 114.377187 -8.467188 119.056875 -8.467188 C 123.732656 -8.467188 127.525625 -4.678125 127.525625 0.0015625 Z M 127.525625 0.0015625 " transform="matrix(1,0,0,-1,8.99,83.65)"/>
<path style="fill:none;stroke-width:0.3985;stroke-linecap:butt;stroke-linejoin:miter;stroke:rgb(0%,0%,0%);stroke-opacity:1;stroke-miterlimit:10;" d="M 105.342031 25.970312 L 112.927969 33.55625 " transform="matrix(1,0,0,-1,8.99,83.65)"/>
<path style="fill:none;stroke-width:0.3985;stroke-linecap:butt;stroke-linejoin:miter;stroke:rgb(0%,0%,0%);stroke-opacity:1;stroke-miterlimit:10;" d="M 105.342031 13.7125 L 112.927969 6.130469 " transform="matrix(1,0,0,-1,8.99,83.65)"/>
<path style="fill:none;stroke-width:0.3985;stroke-linecap:butt;stroke-linejoin:miter;stroke:rgb(0%,0%,0%);stroke-opacity:1;stroke-dasharray:2.98883,2.98883;stroke-miterlimit:10;" d="M 93.084219 25.970312 C 17.232656 101.775 260.549062 101.853125 184.744375 26.001562 " transform="matrix(1,0,0,-1,8.99,83.65)"/>
<path style="fill:none;stroke-width:0.3985;stroke-linecap:butt;stroke-linejoin:miter;stroke:rgb(0%,0%,0%);stroke-opacity:1;stroke-miterlimit:10;" d="M 150.076406 39.685156 L 127.724844 39.685156 " transform="matrix(1,0,0,-1,8.99,83.65)"/>
<path style="fill:none;stroke-width:0.3985;stroke-linecap:butt;stroke-linejoin:miter;stroke:rgb(0%,0%,0%);stroke-opacity:1;stroke-miterlimit:10;" d="M 164.900625 33.525 L 172.427969 26.001562 " transform="matrix(1,0,0,-1,8.99,83.65)"/>
<path style="fill:none;stroke-width:0.3985;stroke-linecap:butt;stroke-linejoin:miter;stroke:rgb(0%,0%,0%);stroke-opacity:1;stroke-miterlimit:10;" d="M 150.076406 0.0015625 L 127.724844 0.0015625 " transform="matrix(1,0,0,-1,8.99,83.65)"/>
<path style="fill:none;stroke-width:0.3985;stroke-linecap:butt;stroke-linejoin:miter;stroke:rgb(0%,0%,0%);stroke-opacity:1;stroke-miterlimit:10;" d="M 164.900625 6.157812 L 172.427969 13.685156 " transform="matrix(1,0,0,-1,8.99,83.65)"/>
<path style="fill:none;stroke-width:0.3985;stroke-linecap:butt;stroke-linejoin:miter;stroke:rgb(0%,0%,0%);stroke-opacity:1;stroke-miterlimit:10;" d="M 206.896719 19.841406 C 206.896719 24.521094 203.10375 28.310156 198.427969 28.310156 C 193.748281 28.310156 189.959219 24.521094 189.959219 19.841406 C 189.959219 15.165625 193.748281 11.372656 198.427969 11.372656 C 203.10375 11.372656 206.896719 15.165625 206.896719 19.841406 Z M 206.896719 19.841406 " transform="matrix(1,0,0,-1,8.99,83.65)"/>
<path style="fill:none;stroke-width:0.3985;stroke-linecap:butt;stroke-linejoin:miter;stroke:rgb(0%,0%,0%);stroke-opacity:1;stroke-miterlimit:10;" d="M 226.736562 39.685156 C 226.736562 44.360937 222.9475 48.153906 218.267812 48.153906 C 213.592031 48.153906 209.802969 44.360937 209.802969 39.685156 C 209.802969 35.009375 213.592031 31.216406 218.267812 31.216406 C 222.9475 31.216406 226.736562 35.009375 226.736562 39.685156 Z M 226.736562 39.685156 " transform="matrix(1,0,0,-1,8.99,83.65)"/>
<path style="fill:none;stroke-width:0.3985;stroke-linecap:butt;stroke-linejoin:miter;stroke:rgb(0%,0%,0%);stroke-opacity:1;stroke-miterlimit:10;" d="M 266.424062 39.685156 C 266.424062 44.360937 262.631094 48.153906 257.955312 48.153906 C 253.279531 48.153906 249.486562 44.360937 249.486562 39.685156 C 249.486562 35.009375 253.279531 31.216406 257.955312 31.216406 C 262.631094 31.216406 266.424062 35.009375 266.424062 39.685156 Z M 266.424062 39.685156 " transform="matrix(1,0,0,-1,8.99,83.65)"/>
<path style="fill:none;stroke-width:0.3985;stroke-linecap:butt;stroke-linejoin:miter;stroke:rgb(0%,0%,0%);stroke-opacity:1;stroke-miterlimit:10;" d="M 286.267812 19.841406 C 286.267812 24.521094 282.474844 28.310156 277.799062 28.310156 C 273.119375 28.310156 269.330312 24.521094 269.330312 19.841406 C 269.330312 15.165625 273.119375 11.372656 277.799062 11.372656 C 282.474844 11.372656 286.267812 15.165625 286.267812 19.841406 Z M 286.267812 19.841406 " transform="matrix(1,0,0,-1,8.99,83.65)"/>
<path style="fill:none;stroke-width:0.3985;stroke-linecap:butt;stroke-linejoin:miter;stroke:rgb(0%,0%,0%);stroke-opacity:1;stroke-miterlimit:10;" d="M 266.424062 0.0015625 C 266.424062 4.677344 262.631094 8.466406 257.955312 8.466406 C 253.279531 8.466406 249.486562 4.677344 249.486562 0.0015625 C 249.486562 -4.678125 253.279531 -8.467188 257.955312 -8.467188 C 262.631094 -8.467188 266.424062 -4.678125 266.424062 0.0015625 Z M 266.424062 0.0015625 " transform="matrix(1,0,0,-1,8.99,83.65)"/>
<path style="fill:none;stroke-width:0.3985;stroke-linecap:butt;stroke-linejoin:miter;stroke:rgb(0%,0%,0%);stroke-opacity:1;stroke-miterlimit:10;" d="M 226.736562 0.0015625 C 226.736562 4.677344 222.9475 8.466406 218.267812 8.466406 C 213.592031 8.466406 209.802969 4.677344 209.802969 0.0015625 C 209.802969 -4.678125 213.592031 -8.467188 218.267812 -8.467188 C 222.9475 -8.467188 226.736562 -4.678125 226.736562 0.0015625 Z M 226.736562 0.0015625 " transform="matrix(1,0,0,-1,8.99,83.65)"/>
<path style="fill:none;stroke-width:0.3985;stroke-linecap:butt;stroke-linejoin:miter;stroke:rgb(0%,0%,0%);stroke-opacity:1;stroke-miterlimit:10;" d="M 204.556875 25.970312 L 212.142812 33.55625 " transform="matrix(1,0,0,-1,8.99,83.65)"/>
<path style="fill:none;stroke-width:0.3985;stroke-linecap:butt;stroke-linejoin:miter;stroke:rgb(0%,0%,0%);stroke-opacity:1;stroke-miterlimit:10;" d="M 204.556875 13.7125 L 212.142812 6.130469 " transform="matrix(1,0,0,-1,8.99,83.65)"/>
<path style="fill:none;stroke-width:0.3985;stroke-linecap:butt;stroke-linejoin:miter;stroke:rgb(0%,0%,0%);stroke-opacity:1;stroke-dasharray:2.98883,2.98883;stroke-miterlimit:10;" d="M 192.299062 13.7125 C 116.4475 -62.088281 359.763906 -62.166406 283.959219 13.685156 " transform="matrix(1,0,0,-1,8.99,83.65)"/>
<path style="fill:none;stroke-width:0.3985;stroke-linecap:butt;stroke-linejoin:miter;stroke:rgb(0%,0%,0%);stroke-opacity:1;stroke-miterlimit:10;" d="M 249.287344 39.685156 L 226.935781 39.685156 " transform="matrix(1,0,0,-1,8.99,83.65)"/>
<path style="fill:none;stroke-width:0.3985;stroke-linecap:butt;stroke-linejoin:miter;stroke:rgb(0%,0%,0%);stroke-opacity:1;stroke-miterlimit:10;" d="M 264.115469 33.525 L 271.638906 26.001562 " transform="matrix(1,0,0,-1,8.99,83.65)"/>
<path style="fill:none;stroke-width:0.3985;stroke-linecap:butt;stroke-linejoin:miter;stroke:rgb(0%,0%,0%);stroke-opacity:1;stroke-miterlimit:10;" d="M 249.287344 0.0015625 L 226.935781 0.0015625 " transform="matrix(1,0,0,-1,8.99,83.65)"/>
<path style="fill:none;stroke-width:0.3985;stroke-linecap:butt;stroke-linejoin:miter;stroke:rgb(0%,0%,0%);stroke-opacity:1;stroke-miterlimit:10;" d="M 264.115469 6.157812 L 271.638906 13.685156 " transform="matrix(1,0,0,-1,8.99,83.65)"/>
</g>
</svg>
