<?xml version="1.0" encoding="UTF-8"?>
<svg xmlns="http://www.w3.org/2000/svg" xmlns:xlink="http://www.w3.org/1999/xlink" width="401pt" height="206pt" viewBox="0 0 401 206" version="1.1">
<g id="surface1">
<path style="fill:none;stroke-width:0.3985;stroke-linecap:butt;stroke-linejoin:miter;stroke:rgb(0%,0%,0%);stroke-opacity:1;stroke-dasharray:2.98883,2.98883;stroke-miterlimit:10;" d="M -0.000625 -0.00015625 L 170.081406 -0.00015625 " transform="matrix(1,0,0,-1,0.61,202.41)"/>
<path style="fill:none;stroke-width:0.3985;stroke-linecap:butt;stroke-linejoin:miter;stroke:rgb(0%,0%,0%);stroke-opacity:1;stroke-dasharray:2.98883,2.98883;stroke-miterlimit:10;" d="M -0.000625 198.429531 L 170.081406 198.429531 " transform="matrix(1,0,0,-1,0.61,202.41)"/>
<path style="fill:none;stroke-width:0.3985;stroke-linecap:butt;stroke-linejoin:miter;stroke:rgb(0%,0%,0%);stroke-opacity:1;stroke-dasharray:0.3985,1.99255;stroke-miterlimit:10;" d="M -0.000625 -0.00015625 L -0.000625 198.429531 " transform="matrix(1,0,0,-1,0.61,202.41)"/>
<path style="fill:none;stroke-width:0.3985;stroke-linecap:butt;stroke-linejoin:miter;stroke:rgb(0%,0%,0%);stroke-opacity:1;stroke-dasharray:0.3985,1.99255;stroke-miterlimit:10;" d="M 170.081406 -0.00015625 L 170.081406 198.429531 " transform="matrix(1,0,0,-1,0.61,202.41)"/>
<path style="fill-rule:nonzero;fill:rgb(0%,0%,0%);fill-opacity:1;stroke-width:0.3985;stroke-linecap:butt;stroke-linejoin:miter;stroke:rgb(0%,0%,0%);stroke-opacity:1;stroke-miterlimit:10;" d="M 59.682969 56.695156 C 59.682969 58.343594 58.343125 59.683437 56.694688 59.683437 C 55.042344 59.683437 53.706406 58.343594 53.706406 56.695156 C 53.706406 55.042812 55.042344 53.702969 56.694688 53.702969 C 58.343125 53.702969 59.682969 55.042812 59.682969 56.695156 Z M 59.682969 56.695156 " transform="matrix(1,0,0,-1,0.61,202.41)"/>
<path style="fill-rule:nonzero;fill:rgb(0%,0%,0%);fill-opacity:1;stroke-width:0.3985;stroke-linecap:butt;stroke-linejoin:miter;stroke:rgb(0%,0%,0%);stroke-opacity:1;stroke-miterlimit:10;" d="M 59.682969 113.386562 C 59.682969 115.038906 58.343125 116.374844 56.694688 116.374844 C 55.042344 116.374844 53.706406 115.038906 53.706406 113.386562 C 53.706406 111.738125 55.042344 110.398281 56.694688 110.398281 C 58.343125 110.398281 59.682969 111.738125 59.682969 113.386562 Z M 59.682969 113.386562 " transform="matrix(1,0,0,-1,0.61,202.41)"/>
<path style="fill-rule:nonzero;fill:rgb(0%,0%,0%);fill-opacity:1;stroke-width:0.3985;stroke-linecap:butt;stroke-linejoin:miter;stroke:rgb(0%,0%,0%);stroke-opacity:1;stroke-miterlimit:10;" d="M 116.374375 56.695156 C 116.374375 58.343594 115.038438 59.683437 113.386094 59.683437 C 111.737656 59.683437 110.397813 58.343594 110.397813 56.695156 C 110.397813 55.042812 111.737656 53.702969 113.386094 53.702969 C 115.038438 53.702969 116.374375 55.042812 116.374375 56.695156 Z M 116.374375 56.695156 " transform="matrix(1,0,0,-1,0.61,202.41)"/>
<path style="fill-rule:nonzero;fill:rgb(0%,0%,0%);fill-opacity:1;stroke-width:0.3985;stroke-linecap:butt;stroke-linejoin:miter;stroke:rgb(0%,0%,0%);stroke-opacity:1;stroke-miterlimit:10;" d="M 116.374375 113.386562 C 116.374375 115.038906 115.038438 116.374844 113.386094 116.374844 C 111.737656 116.374844 110.397813 115.038906 110.397813 113.386562 C 110.397813 111.738125 111.737656 110.398281 113.386094 110.398281 C 115.038438 110.398281 116.374375 111.738125 116.374375 113.386562 Z M 116.374375 113.386562 " transform="matrix(1,0,0,-1,0.61,202.41)"/>
<path style="fill-rule:nonzero;fill:rgb(0%,0%,0%);fill-opacity:1;stroke-width:0.3985;stroke-linecap:butt;stroke-linejoin:miter;stroke:rgb(0%,0%,0%);stroke-opacity:1;stroke-miterlimit:10;" d="M 88.030625 141.734219 C 88.030625 143.386562 86.690781 144.7225 85.042344 144.7225 C 83.39 144.7225 82.050156 143.386562 82.050156 141.734219 C 82.050156 140.081875 83.39 138.745937 85.042344 138.745937 C 86.690781 138.745937 88.030625 140.081875 88.030625 141.734219 Z M 88.030625 141.734219 " transform="matrix(1,0,0,-1,0.61,202.41)"/>
<path style="fill:none;stroke-width:0.3985;stroke-linecap:butt;stroke-linejoin:miter;stroke:rgb(0%,0%,0%);stroke-opacity:1;stroke-miterlimit:10;" d="M 56.694688 56.695156 L 56.694688 113.386562 L 113.386094 113.386562 L 113.386094 56.695156 L 56.694688 56.695156 L 113.386094 113.386562 " transform="matrix(1,0,0,-1,0.61,202.41)"/>
<path style="fill:none;stroke-width:0.3985;stroke-linecap:butt;stroke-linejoin:miter;stroke:rgb(0%,0%,0%);stroke-opacity:1;stroke-miterlimit:10;" d="M 56.694688 56.695156 L 70.866563 -0.00015625 " transform="matrix(1,0,0,-1,0.61,202.41)"/>
<path style="fill:none;stroke-width:0.3985;stroke-linecap:butt;stroke-linejoin:miter;stroke:rgb(0%,0%,0%);stroke-opacity:1;stroke-miterlimit:10;" d="M 99.214219 -0.00015625 L 113.386094 56.695156 " transform="matrix(1,0,0,-1,0.61,202.41)"/>
<path style="fill:none;stroke-width:0.3985;stroke-linecap:butt;stroke-linejoin:miter;stroke:rgb(0%,0%,0%);stroke-opacity:1;stroke-miterlimit:10;" d="M 70.866563 198.429531 L 85.042344 141.734219 L 99.214219 198.429531 " transform="matrix(1,0,0,-1,0.61,202.41)"/>
<path style="fill:none;stroke-width:0.3985;stroke-linecap:butt;stroke-linejoin:miter;stroke:rgb(0%,0%,0%);stroke-opacity:1;stroke-miterlimit:10;" d="M 56.694688 113.386562 L 85.042344 141.734219 L 113.386094 113.386562 " transform="matrix(1,0,0,-1,0.61,202.41)"/>
<path style="fill:none;stroke-width:0.3985;stroke-linecap:butt;stroke-linejoin:miter;stroke:rgb(0%,0%,0%);stroke-opacity:1;stroke-miterlimit:10;" d="M 113.386094 56.695156 L 170.081406 85.038906 " transform="matrix(1,0,0,-1,0.61,202.41)"/>
<path style="fill:none;stroke-width:0.3985;stroke-linecap:butt;stroke-linejoin:miter;stroke:rgb(0%,0%,0%);stroke-opacity:1;stroke-miterlimit:10;" d="M -0.000625 85.038906 L 56.694688 113.386562 " transform="matrix(1,0,0,-1,0.61,202.41)"/>
<path style="fill:none;stroke-width:0.3985;stroke-linecap:butt;stroke-linejoin:miter;stroke:rgb(0%,0%,0%);stroke-opacity:1;stroke-dasharray:2.98883,2.98883;stroke-miterlimit:10;" d="M 226.772812 -0.00015625 L 396.854844 -0.00015625 " transform="matrix(1,0,0,-1,0.61,202.41)"/>
<path style="fill:none;stroke-width:0.3985;stroke-linecap:butt;stroke-linejoin:miter;stroke:rgb(0%,0%,0%);stroke-opacity:1;stroke-dasharray:2.98883,2.98883;stroke-miterlimit:10;" d="M 226.772812 198.429531 L 396.854844 198.429531 " transform="matrix(1,0,0,-1,0.61,202.41)"/>
<path style="fill:none;stroke-width:0.3985;stroke-linecap:butt;stroke-linejoin:miter;stroke:rgb(0%,0%,0%);stroke-opacity:1;stroke-dasharray:0.3985,1.99255;stroke-miterlimit:10;" d="M 226.772812 -0.00015625 L 226.772812 198.429531 " transform="matrix(1,0,0,-1,0.61,202.41)"/>
<path style="fill:none;stroke-width:0.3985;stroke-linecap:butt;stroke-linejoin:miter;stroke:rgb(0%,0%,0%);stroke-opacity:1;stroke-dasharray:0.3985,1.99255;stroke-miterlimit:10;" d="M 396.854844 -0.00015625 L 396.854844 198.429531 " transform="matrix(1,0,0,-1,0.61,202.41)"/>
<path style="fill-rule:nonzero;fill:rgb(100%,0%,0%);fill-opacity:1;stroke-width:0.3985;stroke-linecap:butt;stroke-linejoin:miter;stroke:rgb(100%,0%,0%);stroke-opacity:1;stroke-miterlimit:10;" d="M 229.765 -0.00015625 C 229.765 1.652187 228.425156 2.988125 226.772812 2.988125 C 225.124375 2.988125 223.784531 1.652187 223.784531 -0.00015625 C 223.784531 -1.6525 225.124375 -2.988438 226.772812 -2.988438 C 228.425156 -2.988438 229.765 -1.6525 229.765 -0.00015625 Z M 229.765 -0.00015625 " transform="matrix(1,0,0,-1,0.61,202.41)"/>
<path style="fill-rule:nonzero;fill:rgb(100%,0%,0%);fill-opacity:1;stroke-width:0.3985;stroke-linecap:butt;stroke-linejoin:miter;stroke:rgb(100%,0%,0%);stroke-opacity:1;stroke-miterlimit:10;" d="M 399.843125 -0.00015625 C 399.843125 1.652187 398.507187 2.988125 396.854844 2.988125 C 395.206406 2.988125 393.866562 1.652187 393.866562 -0.00015625 C 393.866562 -1.6525 395.206406 -2.988438 396.854844 -2.988438 C 398.507187 -2.988438 399.843125 -1.6525 399.843125 -0.00015625 Z M 399.843125 -0.00015625 " transform="matrix(1,0,0,-1,0.61,202.41)"/>
<path style="fill-rule:nonzero;fill:rgb(100%,0%,0%);fill-opacity:1;stroke-width:0.3985;stroke-linecap:butt;stroke-linejoin:miter;stroke:rgb(100%,0%,0%);stroke-opacity:1;stroke-miterlimit:10;" d="M 399.843125 198.429531 C 399.843125 200.077969 398.507187 201.417812 396.854844 201.417812 C 395.206406 201.417812 393.866562 200.077969 393.866562 198.429531 C 393.866562 196.777187 395.206406 195.437344 396.854844 195.437344 C 398.507187 195.437344 399.843125 196.777187 399.843125 198.429531 Z M 399.843125 198.429531 " transform="matrix(1,0,0,-1,0.61,202.41)"/>
<path style="fill-rule:nonzero;fill:rgb(100%,0%,0%);fill-opacity:1;stroke-width:0.3985;stroke-linecap:butt;stroke-linejoin:miter;stroke:rgb(100%,0%,0%);stroke-opacity:1;stroke-miterlimit:10;" d="M 229.765 198.429531 C 229.765 200.077969 228.425156 201.417812 226.772812 201.417812 C 225.124375 201.417812 223.784531 200.077969 223.784531 198.429531 C 223.784531 196.777187 225.124375 195.437344 226.772812 195.437344 C 228.425156 195.437344 229.765 196.777187 229.765 198.429531 Z M 229.765 198.429531 " transform="matrix(1,0,0,-1,0.61,202.41)"/>
<path style="fill:none;stroke-width:0.3985;stroke-linecap:butt;stroke-linejoin:miter;stroke:rgb(100%,0%,0%);stroke-opacity:1;stroke-miterlimit:10;" d="M 226.772812 -0.00015625 L 283.468125 56.695156 " transform="matrix(1,0,0,-1,0.61,202.41)"/>
<path style="fill:none;stroke-width:0.3985;stroke-linecap:butt;stroke-linejoin:miter;stroke:rgb(100%,0%,0%);stroke-opacity:1;stroke-miterlimit:10;" d="M 396.854844 -0.00015625 L 340.163437 56.695156 " transform="matrix(1,0,0,-1,0.61,202.41)"/>
<path style="fill:none;stroke-width:0.3985;stroke-linecap:butt;stroke-linejoin:miter;stroke:rgb(100%,0%,0%);stroke-opacity:1;stroke-miterlimit:10;" d="M 396.854844 198.429531 L 340.163437 113.386562 " transform="matrix(1,0,0,-1,0.61,202.41)"/>
<path style="fill:none;stroke-width:0.3985;stroke-linecap:butt;stroke-linejoin:miter;stroke:rgb(100%,0%,0%);stroke-opacity:1;stroke-miterlimit:10;" d="M 283.468125 113.386562 L 226.772812 198.429531 L 311.815781 141.734219 " transform="matrix(1,0,0,-1,0.61,202.41)"/>
<path style="fill-rule:nonzero;fill:rgb(0%,0%,0%);fill-opacity:1;stroke-width:0.3985;stroke-linecap:butt;stroke-linejoin:miter;stroke:rgb(0%,0%,0%);stroke-opacity:1;stroke-miterlimit:10;" d="M 286.456406 56.695156 C 286.456406 58.343594 285.120469 59.683437 283.468125 59.683437 C 281.815781 59.683437 280.479844 58.343594 280.479844 56.695156 C 280.479844 55.042812 281.815781 53.702969 283.468125 53.702969 C 285.120469 53.702969 286.456406 55.042812 286.456406 56.695156 Z M 286.456406 56.695156 " transform="matrix(1,0,0,-1,0.61,202.41)"/>
<path style="fill-rule:nonzero;fill:rgb(0%,0%,0%);fill-opacity:1;stroke-width:0.3985;stroke-linecap:butt;stroke-linejoin:miter;stroke:rgb(0%,0%,0%);stroke-opacity:1;stroke-miterlimit:10;" d="M 286.456406 113.386562 C 286.456406 115.038906 285.120469 116.374844 283.468125 116.374844 C 281.815781 116.374844 280.479844 115.038906 280.479844 113.386562 C 280.479844 111.738125 281.815781 110.398281 283.468125 110.398281 C 285.120469 110.398281 286.456406 111.738125 286.456406 113.386562 Z M 286.456406 113.386562 " transform="matrix(1,0,0,-1,0.61,202.41)"/>
<path style="fill-rule:nonzero;fill:rgb(0%,0%,0%);fill-opacity:1;stroke-width:0.3985;stroke-linecap:butt;stroke-linejoin:miter;stroke:rgb(0%,0%,0%);stroke-opacity:1;stroke-miterlimit:10;" d="M 343.151719 56.695156 C 343.151719 58.343594 341.811875 59.683437 340.163437 59.683437 C 338.511094 59.683437 337.17125 58.343594 337.17125 56.695156 C 337.17125 55.042812 338.511094 53.702969 340.163437 53.702969 C 341.811875 53.702969 343.151719 55.042812 343.151719 56.695156 Z M 343.151719 56.695156 " transform="matrix(1,0,0,-1,0.61,202.41)"/>
<path style="fill-rule:nonzero;fill:rgb(0%,0%,0%);fill-opacity:1;stroke-width:0.3985;stroke-linecap:butt;stroke-linejoin:miter;stroke:rgb(0%,0%,0%);stroke-opacity:1;stroke-miterlimit:10;" d="M 343.151719 113.386562 C 343.151719 115.038906 341.811875 116.374844 340.163437 116.374844 C 338.511094 116.374844 337.17125 115.038906 337.17125 113.386562 C 337.17125 111.738125 338.511094 110.398281 340.163437 110.398281 C 341.811875 110.398281 343.151719 111.738125 343.151719 113.386562 Z M 343.151719 113.386562 " transform="matrix(1,0,0,-1,0.61,202.41)"/>
<path style="fill-rule:nonzero;fill:rgb(0%,0%,0%);fill-opacity:1;stroke-width:0.3985;stroke-linecap:butt;stroke-linejoin:miter;stroke:rgb(0%,0%,0%);stroke-opacity:1;stroke-miterlimit:10;" d="M 314.804062 141.734219 C 314.804062 143.386562 313.464219 144.7225 311.815781 144.7225 C 310.163437 144.7225 308.8275 143.386562 308.8275 141.734219 C 308.8275 140.081875 310.163437 138.745937 311.815781 138.745937 C 313.464219 138.745937 314.804062 140.081875 314.804062 141.734219 Z M 314.804062 141.734219 " transform="matrix(1,0,0,-1,0.61,202.41)"/>
<path style="fill:none;stroke-width:0.3985;stroke-linecap:butt;stroke-linejoin:miter;stroke:rgb(0%,0%,0%);stroke-opacity:1;stroke-miterlimit:10;" d="M 283.468125 56.695156 L 283.468125 113.386562 L 340.163437 113.386562 L 340.163437 56.695156 L 283.468125 56.695156 L 340.163437 113.386562 " transform="matrix(1,0,0,-1,0.61,202.41)"/>
<path style="fill:none;stroke-width:0.3985;stroke-linecap:butt;stroke-linejoin:miter;stroke:rgb(0%,0%,0%);stroke-opacity:1;stroke-miterlimit:10;" d="M 283.468125 56.695156 L 297.64 -0.00015625 " transform="matrix(1,0,0,-1,0.61,202.41)"/>
<path style="fill:none;stroke-width:0.3985;stroke-linecap:butt;stroke-linejoin:miter;stroke:rgb(0%,0%,0%);stroke-opacity:1;stroke-miterlimit:10;" d="M 325.987656 -0.00015625 L 340.163437 56.695156 " transform="matrix(1,0,0,-1,0.61,202.41)"/>
<path style="fill:none;stroke-width:0.3985;stroke-linecap:butt;stroke-linejoin:miter;stroke:rgb(0%,0%,0%);stroke-opacity:1;stroke-miterlimit:10;" d="M 297.64 198.429531 L 311.815781 141.734219 L 325.987656 198.429531 " transform="matrix(1,0,0,-1,0.61,202.41)"/>
<path style="fill:none;stroke-width:0.3985;stroke-linecap:butt;stroke-linejoin:miter;stroke:rgb(0%,0%,0%);stroke-opacity:1;stroke-miterlimit:10;" d="M 283.468125 113.386562 L 311.815781 141.734219 L 340.163437 113.386562 " transform="matrix(1,0,0,-1,0.61,202.41)"/>
<path style="fill:none;stroke-width:0.3985;stroke-linecap:butt;stroke-linejoin:miter;stroke:rgb(0%,0%,0%);stroke-opacity:1;stroke-miterlimit:10;" d="M 340.163437 56.695156 L 396.854844 85.038906 " transform="matrix(1,0,0,-1,0.61,202.41)"/>
<path style="fill:none;stroke-width:0.3985;stroke-linecap:butt;stroke-linejoin:miter;stroke:rgb(0%,0%,0%);stroke-opacity:1;stroke-miterlimit:10;" d="M 226.772812 85.038906 L 283.468125 113.386562 " transform="matrix(1,0,0,-1,0.61,202.41)"/>
</g>
</svg>
