<?xml version="1.0" encoding="UTF-8"?>
<svg xmlns="http://www.w3.org/2000/svg" xmlns:xlink="http://www.w3.org/1999/xlink" width="309pt" height="128pt" viewBox="0 0 309 128" version="1.1">
<g id="surface1">
<path style="fill:none;stroke-width:0.3985;stroke-linecap:butt;stroke-linejoin:miter;stroke:rgb(0%,0%,0%);stroke-opacity:1;stroke-miterlimit:10;" d="M 8.466875 19.842188 C 8.466875 24.517969 4.677813 28.310938 -0.001875 28.310938 C -4.677656 28.310938 -8.466719 24.517969 -8.466719 19.842188 C -8.466719 15.166406 -4.677656 11.373438 -0.001875 11.373438 C 4.677813 11.373438 8.466875 15.166406 8.466875 19.842188 Z M 8.466875 19.842188 " transform="matrix(1,0,0,-1,9.08,83.85)"/>
<path style="fill:none;stroke-width:0.3985;stroke-linecap:butt;stroke-linejoin:miter;stroke:rgb(0%,0%,0%);stroke-opacity:1;stroke-miterlimit:10;" d="M 28.310625 39.685938 C 28.310625 44.361719 24.521563 48.154688 19.841875 48.154688 C 15.166094 48.154688 11.373125 44.361719 11.373125 39.685938 C 11.373125 35.010156 15.166094 31.217188 19.841875 31.217188 C 24.521563 31.217188 28.310625 35.010156 28.310625 39.685938 Z M 28.310625 39.685938 " transform="matrix(1,0,0,-1,9.08,83.85)"/>
<path style="fill:none;stroke-width:0.3985;stroke-linecap:butt;stroke-linejoin:miter;stroke:rgb(0%,0%,0%);stroke-opacity:1;stroke-miterlimit:10;" d="M 67.998125 39.685938 C 67.998125 44.361719 64.205156 48.154688 59.529375 48.154688 C 54.849688 48.154688 51.060625 44.361719 51.060625 39.685938 C 51.060625 35.010156 54.849688 31.217188 59.529375 31.217188 C 64.205156 31.217188 67.998125 35.010156 67.998125 39.685938 Z M 67.998125 39.685938 " transform="matrix(1,0,0,-1,9.08,83.85)"/>
<path style="fill:none;stroke-width:0.3985;stroke-linecap:butt;stroke-linejoin:miter;stroke:rgb(0%,0%,0%);stroke-opacity:1;stroke-miterlimit:10;" d="M 87.837969 19.842188 C 87.837969 24.517969 84.048906 28.310938 79.369219 28.310938 C 74.693438 28.310938 70.900469 24.517969 70.900469 19.842188 C 70.900469 15.166406 74.693438 11.373438 79.369219 11.373438 C 84.048906 11.373438 87.837969 15.166406 87.837969 19.842188 Z M 87.837969 19.842188 " transform="matrix(1,0,0,-1,9.08,83.85)"/>
<path style="fill:none;stroke-width:0.3985;stroke-linecap:butt;stroke-linejoin:miter;stroke:rgb(0%,0%,0%);stroke-opacity:1;stroke-miterlimit:10;" d="M 67.998125 -0.0015625 C 67.998125 4.678125 64.205156 8.467188 59.529375 8.467188 C 54.849688 8.467188 51.060625 4.678125 51.060625 -0.0015625 C 51.060625 -4.677344 54.849688 -8.466406 59.529375 -8.466406 C 64.205156 -8.466406 67.998125 -4.677344 67.998125 -0.0015625 Z M 67.998125 -0.0015625 " transform="matrix(1,0,0,-1,9.08,83.85)"/>
<path style="fill:none;stroke-width:0.3985;stroke-linecap:butt;stroke-linejoin:miter;stroke:rgb(0%,0%,0%);stroke-opacity:1;stroke-miterlimit:10;" d="M 28.310625 -0.0015625 C 28.310625 4.678125 24.521563 8.467188 19.841875 8.467188 C 15.166094 8.467188 11.373125 4.678125 11.373125 -0.0015625 C 11.373125 -4.677344 15.166094 -8.466406 19.841875 -8.466406 C 24.521563 -8.466406 28.310625 -4.677344 28.310625 -0.0015625 Z M 28.310625 -0.0015625 " transform="matrix(1,0,0,-1,9.08,83.85)"/>
<path style="fill:none;stroke-width:0.3985;stroke-linecap:butt;stroke-linejoin:miter;stroke:rgb(0%,0%,0%);stroke-opacity:1;stroke-miterlimit:10;" d="M 6.130938 25.971094 L 13.712969 33.557031 " transform="matrix(1,0,0,-1,9.08,83.85)"/>
<path style="fill:none;stroke-width:0.3985;stroke-linecap:butt;stroke-linejoin:miter;stroke:rgb(0%,0%,0%);stroke-opacity:1;stroke-miterlimit:10;" d="M 6.130938 13.713281 L 13.712969 6.127344 " transform="matrix(1,0,0,-1,9.08,83.85)"/>
<path style="fill:none;stroke-width:0.3985;stroke-linecap:butt;stroke-linejoin:miter;stroke:rgb(0%,0%,0%);stroke-opacity:1;stroke-dasharray:2.98883,2.98883;stroke-miterlimit:10;" d="M 8.666094 19.842188 L 70.705156 19.842188 " transform="matrix(1,0,0,-1,9.08,83.85)"/>
<path style="fill:none;stroke-width:0.3985;stroke-linecap:butt;stroke-linejoin:miter;stroke:rgb(0%,0%,0%);stroke-opacity:1;stroke-miterlimit:10;" d="M 50.861406 39.685938 L 28.509844 39.685938 " transform="matrix(1,0,0,-1,9.08,83.85)"/>
<path style="fill:none;stroke-width:0.3985;stroke-linecap:butt;stroke-linejoin:miter;stroke:rgb(0%,0%,0%);stroke-opacity:1;stroke-miterlimit:10;" d="M 65.689531 33.525781 L 73.212969 26.002344 " transform="matrix(1,0,0,-1,9.08,83.85)"/>
<path style="fill:none;stroke-width:0.3985;stroke-linecap:butt;stroke-linejoin:miter;stroke:rgb(0%,0%,0%);stroke-opacity:1;stroke-miterlimit:10;" d="M 50.861406 -0.0015625 L 28.509844 -0.0015625 " transform="matrix(1,0,0,-1,9.08,83.85)"/>
<path style="fill:none;stroke-width:0.3985;stroke-linecap:butt;stroke-linejoin:miter;stroke:rgb(0%,0%,0%);stroke-opacity:1;stroke-miterlimit:10;" d="M 65.689531 6.158594 L 73.212969 13.682031 " transform="matrix(1,0,0,-1,9.08,83.85)"/>
<path style="fill:none;stroke-width:0.3985;stroke-linecap:butt;stroke-linejoin:miter;stroke:rgb(0%,0%,0%);stroke-opacity:1;stroke-miterlimit:10;" d="M 107.681719 19.842188 C 107.681719 24.517969 103.88875 28.310938 99.212969 28.310938 C 94.537188 28.310938 90.744219 24.517969 90.744219 19.842188 C 90.744219 15.166406 94.537188 11.373438 99.212969 11.373438 C 103.88875 11.373438 107.681719 15.166406 107.681719 19.842188 Z M 107.681719 19.842188 " transform="matrix(1,0,0,-1,9.08,83.85)"/>
<path style="fill:none;stroke-width:0.3985;stroke-linecap:butt;stroke-linejoin:miter;stroke:rgb(0%,0%,0%);stroke-opacity:1;stroke-miterlimit:10;" d="M 127.525469 39.685938 C 127.525469 44.361719 123.7325 48.154688 119.056719 48.154688 C 114.380938 48.154688 110.587969 44.361719 110.587969 39.685938 C 110.587969 35.010156 114.380938 31.217188 119.056719 31.217188 C 123.7325 31.217188 127.525469 35.010156 127.525469 39.685938 Z M 127.525469 39.685938 " transform="matrix(1,0,0,-1,9.08,83.85)"/>
<path style="fill:none;stroke-width:0.3985;stroke-linecap:butt;stroke-linejoin:miter;stroke:rgb(0%,0%,0%);stroke-opacity:1;stroke-miterlimit:10;" d="M 167.209063 39.685938 C 167.209063 44.361719 163.42 48.154688 158.740313 48.154688 C 154.064531 48.154688 150.271563 44.361719 150.271563 39.685938 C 150.271563 35.010156 154.064531 31.217188 158.740313 31.217188 C 163.42 31.217188 167.209063 35.010156 167.209063 39.685938 Z M 167.209063 39.685938 " transform="matrix(1,0,0,-1,9.08,83.85)"/>
<path style="fill:none;stroke-width:0.3985;stroke-linecap:butt;stroke-linejoin:miter;stroke:rgb(0%,0%,0%);stroke-opacity:1;stroke-miterlimit:10;" d="M 187.052813 19.842188 C 187.052813 24.517969 183.259844 28.310938 178.584063 28.310938 C 173.908281 28.310938 170.115313 24.517969 170.115313 19.842188 C 170.115313 15.166406 173.908281 11.373438 178.584063 11.373438 C 183.259844 11.373438 187.052813 15.166406 187.052813 19.842188 Z M 187.052813 19.842188 " transform="matrix(1,0,0,-1,9.08,83.85)"/>
<path style="fill:none;stroke-width:0.3985;stroke-linecap:butt;stroke-linejoin:miter;stroke:rgb(0%,0%,0%);stroke-opacity:1;stroke-miterlimit:10;" d="M 167.209063 -0.0015625 C 167.209063 4.678125 163.42 8.467188 158.740313 8.467188 C 154.064531 8.467188 150.271563 4.678125 150.271563 -0.0015625 C 150.271563 -4.677344 154.064531 -8.466406 158.740313 -8.466406 C 163.42 -8.466406 167.209063 -4.677344 167.209063 -0.0015625 Z M 167.209063 -0.0015625 " transform="matrix(1,0,0,-1,9.08,83.85)"/>
<path style="fill:none;stroke-width:0.3985;stroke-linecap:butt;stroke-linejoin:miter;stroke:rgb(0%,0%,0%);stroke-opacity:1;stroke-miterlimit:10;" d="M 127.525469 -0.0015625 C 127.525469 4.678125 123.7325 8.467188 119.056719 8.467188 C 114.380938 8.467188 110.587969 4.678125 110.587969 -0.0015625 C 110.587969 -4.677344 114.380938 -8.466406 119.056719 -8.466406 C 123.7325 -8.466406 127.525469 -4.677344 127.525469 -0.0015625 Z M 127.525469 -0.0015625 " transform="matrix(1,0,0,-1,9.08,83.85)"/>
<path style="fill:none;stroke-width:0.3985;stroke-linecap:butt;stroke-linejoin:miter;stroke:rgb(0%,0%,0%);stroke-opacity:1;stroke-miterlimit:10;" d="M 105.341875 25.971094 L 112.927813 33.557031 " transform="matrix(1,0,0,-1,9.08,83.85)"/>
<path style="fill:none;stroke-width:0.3985;stroke-linecap:butt;stroke-linejoin:miter;stroke:rgb(0%,0%,0%);stroke-opacity:1;stroke-miterlimit:10;" d="M 105.341875 13.713281 L 112.927813 6.127344 " transform="matrix(1,0,0,-1,9.08,83.85)"/>
<path style="fill:none;stroke-width:0.3985;stroke-linecap:butt;stroke-linejoin:miter;stroke:rgb(0%,0%,0%);stroke-opacity:1;stroke-dasharray:2.98883,2.98883;stroke-miterlimit:10;" d="M 93.084063 25.971094 C 17.2325 101.775781 260.548906 101.853906 184.744219 26.002344 " transform="matrix(1,0,0,-1,9.08,83.85)"/>
<path style="fill:none;stroke-width:0.3985;stroke-linecap:butt;stroke-linejoin:miter;stroke:rgb(0%,0%,0%);stroke-opacity:1;stroke-miterlimit:10;" d="M 150.07625 39.685938 L 127.724688 39.685938 " transform="matrix(1,0,0,-1,9.08,83.85)"/>
<path style="fill:none;stroke-width:0.3985;stroke-linecap:butt;stroke-linejoin:miter;stroke:rgb(0%,0%,0%);stroke-opacity:1;stroke-miterlimit:10;" d="M 164.900469 33.525781 L 172.427813 26.002344 " transform="matrix(1,0,0,-1,9.08,83.85)"/>
<path style="fill:none;stroke-width:0.3985;stroke-linecap:butt;stroke-linejoin:miter;stroke:rgb(0%,0%,0%);stroke-opacity:1;stroke-miterlimit:10;" d="M 150.07625 -0.0015625 L 127.724688 -0.0015625 " transform="matrix(1,0,0,-1,9.08,83.85)"/>
<path style="fill:none;stroke-width:0.3985;stroke-linecap:butt;stroke-linejoin:miter;stroke:rgb(0%,0%,0%);stroke-opacity:1;stroke-miterlimit:10;" d="M 164.900469 6.158594 L 172.427813 13.682031 " transform="matrix(1,0,0,-1,9.08,83.85)"/>
<path style="fill:none;stroke-width:0.3985;stroke-linecap:butt;stroke-linejoin:miter;stroke:rgb(0%,0%,0%);stroke-opacity:1;stroke-miterlimit:10;" d="M 206.896563 19.842188 C 206.896563 24.517969 203.103594 28.310938 198.427813 28.310938 C 193.748125 28.310938 189.959063 24.517969 189.959063 19.842188 C 189.959063 15.166406 193.748125 11.373438 198.427813 11.373438 C 203.103594 11.373438 206.896563 15.166406 206.896563 19.842188 Z M 206.896563 19.842188 " transform="matrix(1,0,0,-1,9.08,83.85)"/>
<path style="fill:none;stroke-width:0.3985;stroke-linecap:butt;stroke-linejoin:miter;stroke:rgb(0%,0%,0%);stroke-opacity:1;stroke-miterlimit:10;" d="M 226.736406 39.685938 C 226.736406 44.361719 222.947344 48.154688 218.267656 48.154688 C 213.591875 48.154688 209.802813 44.361719 209.802813 39.685938 C 209.802813 35.010156 213.591875 31.217188 218.267656 31.217188 C 222.947344 31.217188 226.736406 35.010156 226.736406 39.685938 Z M 226.736406 39.685938 " transform="matrix(1,0,0,-1,9.08,83.85)"/>
<path style="fill:none;stroke-width:0.3985;stroke-linecap:butt;stroke-linejoin:miter;stroke:rgb(0%,0%,0%);stroke-opacity:1;stroke-miterlimit:10;" d="M 266.423906 39.685938 C 266.423906 44.361719 262.630938 48.154688 257.955156 48.154688 C 253.279375 48.154688 249.486406 44.361719 249.486406 39.685938 C 249.486406 35.010156 253.279375 31.217188 257.955156 31.217188 C 262.630938 31.217188 266.423906 35.010156 266.423906 39.685938 Z M 266.423906 39.685938 " transform="matrix(1,0,0,-1,9.08,83.85)"/>
<path style="fill:none;stroke-width:0.3985;stroke-linecap:butt;stroke-linejoin:miter;stroke:rgb(0%,0%,0%);stroke-opacity:1;stroke-miterlimit:10;" d="M 286.267656 19.842188 C 286.267656 24.517969 282.474688 28.310938 277.798906 28.310938 C 273.119219 28.310938 269.330156 24.517969 269.330156 19.842188 C 269.330156 15.166406 273.119219 11.373438 277.798906 11.373438 C 282.474688 11.373438 286.267656 15.166406 286.267656 19.842188 Z M 286.267656 19.842188 " transform="matrix(1,0,0,-1,9.08,83.85)"/>
<path style="fill:none;stroke-width:0.3985;stroke-linecap:butt;stroke-linejoin:miter;stroke:rgb(0%,0%,0%);stroke-opacity:1;stroke-miterlimit:10;" d="M 266.423906 -0.0015625 C 266.423906 4.678125 262.630938 8.467188 257.955156 8.467188 C 253.279375 8.467188 249.486406 4.678125 249.486406 -0.0015625 C 249.486406 -4.677344 253.279375 -8.466406 257.955156 -8.466406 C 262.630938 -8.466406 266.423906 -4.677344 266.423906 -0.0015625 Z M 266.423906 -0.0015625 " transform="matrix(1,0,0,-1,9.08,83.85)"/>
<path style="fill:none;stroke-width:0.3985;stroke-linecap:butt;stroke-linejoin:miter;stroke:rgb(0%,0%,0%);stroke-opacity:1;stroke-miterlimit:10;" d="M 226.736406 -0.0015625 C 226.736406 4.678125 222.947344 8.467188 218.267656 8.467188 C 213.591875 8.467188 209.802813 4.678125 209.802813 -0.0015625 C 209.802813 -4.677344 213.591875 -8.466406 218.267656 -8.466406 C 222.947344 -8.466406 226.736406 -4.677344 226.736406 -0.0015625 Z M 226.736406 -0.0015625 " transform="matrix(1,0,0,-1,9.08,83.85)"/>
<path style="fill:none;stroke-width:0.3985;stroke-linecap:butt;stroke-linejoin:miter;stroke:rgb(0%,0%,0%);stroke-opacity:1;stroke-miterlimit:10;" d="M 204.556719 25.971094 L 212.142656 33.557031 " transform="matrix(1,0,0,-1,9.08,83.85)"/>
<path style="fill:none;stroke-width:0.3985;stroke-linecap:butt;stroke-linejoin:miter;stroke:rgb(0%,0%,0%);stroke-opacity:1;stroke-miterlimit:10;" d="M 204.556719 13.713281 L 212.142656 6.127344 " transform="matrix(1,0,0,-1,9.08,83.85)"/>
<path style="fill:none;stroke-width:0.3985;stroke-linecap:butt;stroke-linejoin:miter;stroke:rgb(0%,0%,0%);stroke-opacity:1;stroke-dasharray:2.98883,2.98883;stroke-miterlimit:10;" d="M 192.298906 13.713281 C 116.447344 -62.091406 359.76375 -62.165625 283.959063 13.682031 " transform="matrix(1,0,0,-1,9.08,83.85)"/>
<path style="fill:none;stroke-width:0.3985;stroke-linecap:butt;stroke-linejoin:miter;stroke:rgb(0%,0%,0%);stroke-opacity:1;stroke-miterlimit:10;" d="M 249.287188 39.685938 L 226.939531 39.685938 " transform="matrix(1,0,0,-1,9.08,83.85)"/>
<path style="fill:none;stroke-width:0.3985;stroke-linecap:butt;stroke-linejoin:miter;stroke:rgb(0%,0%,0%);stroke-opacity:1;stroke-miterlimit:10;" d="M 264.115313 33.525781 L 271.63875 26.002344 " transform="matrix(1,0,0,-1,9.08,83.85)"/>
<path style="fill:none;stroke-width:0.3985;stroke-linecap:butt;stroke-linejoin:miter;stroke:rgb(0%,0%,0%);stroke-opacity:1;stroke-miterlimit:10;" d="M 249.287188 -0.0015625 L 226.939531 -0.0015625 " transform="matrix(1,0,0,-1,9.08,83.85)"/>
<path style="fill:none;stroke-width:0.3985;stroke-linecap:butt;stroke-linejoin:miter;stroke:rgb(0%,0%,0%);stroke-opacity:1;stroke-miterlimit:10;" d="M 264.115313 6.158594 L 271.63875 13.682031 " transform="matrix(1,0,0,-1,9.08,83.85)"/>
</g>
</svg>
