<?xml version="1.0" encoding="UTF-8"?>
<svg xmlns="http://www.w3.org/2000/svg" xmlns:xlink="http://www.w3.org/1999/xlink" width="205pt" height="106pt" viewBox="0 0 205 106" version="1.1">
<g id="surface1">
<path style="fill-rule:nonzero;fill:rgb(100%,0%,0%);fill-opacity:1;stroke-width:0.79701;stroke-linecap:butt;stroke-linejoin:miter;stroke:rgb(0%,0%,0%);stroke-opacity:1;stroke-miterlimit:10;" d="M 1.992125 28.346281 C 1.992125 29.447844 1.1015 30.338469 -0.0000625 30.338469 C -1.101625 30.338469 -1.99225 29.447844 -1.99225 28.346281 C -1.99225 27.244719 -1.101625 26.354094 -0.0000625 26.354094 C 1.1015 26.354094 1.992125 27.244719 1.992125 28.346281 Z M 1.992125 28.346281 " transform="matrix(1,0,0,-1,3.086,95.608)"/>
<path style="fill-rule:nonzero;fill:rgb(100%,0%,0%);fill-opacity:1;stroke-width:0.79701;stroke-linecap:butt;stroke-linejoin:miter;stroke:rgb(0%,0%,0%);stroke-opacity:1;stroke-miterlimit:10;" d="M 1.992125 56.693937 C 1.992125 57.7955 1.1015 58.686125 -0.0000625 58.686125 C -1.101625 58.686125 -1.99225 57.7955 -1.99225 56.693937 C -1.99225 55.592375 -1.101625 54.70175 -0.0000625 54.70175 C 1.1015 54.70175 1.992125 55.592375 1.992125 56.693937 Z M 1.992125 56.693937 " transform="matrix(1,0,0,-1,3.086,95.608)"/>
<path style="fill-rule:nonzero;fill:rgb(100%,0%,0%);fill-opacity:1;stroke-width:0.79701;stroke-linecap:butt;stroke-linejoin:miter;stroke:rgb(0%,0%,0%);stroke-opacity:1;stroke-miterlimit:10;" d="M 30.339781 85.041594 C 30.339781 86.13925 29.449156 87.033781 28.347594 87.033781 C 27.246031 87.033781 26.355406 86.13925 26.355406 85.041594 C 26.355406 83.940031 27.246031 83.049406 28.347594 83.049406 C 29.449156 83.049406 30.339781 83.940031 30.339781 85.041594 Z M 30.339781 85.041594 " transform="matrix(1,0,0,-1,3.086,95.608)"/>
<path style="fill-rule:nonzero;fill:rgb(100%,0%,0%);fill-opacity:1;stroke-width:0.79701;stroke-linecap:butt;stroke-linejoin:miter;stroke:rgb(0%,0%,0%);stroke-opacity:1;stroke-miterlimit:10;" d="M 58.687438 56.693937 C 58.687438 57.7955 57.792906 58.686125 56.69525 58.686125 C 55.593688 58.686125 54.699156 57.7955 54.699156 56.693937 C 54.699156 55.592375 55.593688 54.70175 56.69525 54.70175 C 57.792906 54.70175 58.687438 55.592375 58.687438 56.693937 Z M 58.687438 56.693937 " transform="matrix(1,0,0,-1,3.086,95.608)"/>
<path style="fill-rule:nonzero;fill:rgb(100%,0%,0%);fill-opacity:1;stroke-width:0.79701;stroke-linecap:butt;stroke-linejoin:miter;stroke:rgb(0%,0%,0%);stroke-opacity:1;stroke-miterlimit:10;" d="M 58.687438 28.346281 C 58.687438 29.447844 57.792906 30.338469 56.69525 30.338469 C 55.593688 30.338469 54.699156 29.447844 54.699156 28.346281 C 54.699156 27.244719 55.593688 26.354094 56.69525 26.354094 C 57.792906 26.354094 58.687438 27.244719 58.687438 28.346281 Z M 58.687438 28.346281 " transform="matrix(1,0,0,-1,3.086,95.608)"/>
<path style="fill-rule:nonzero;fill:rgb(100%,0%,0%);fill-opacity:1;stroke-width:0.79701;stroke-linecap:butt;stroke-linejoin:miter;stroke:rgb(0%,0%,0%);stroke-opacity:1;stroke-miterlimit:10;" d="M 30.339781 -0.001375 C 30.339781 1.100187 29.449156 1.990812 28.347594 1.990812 C 27.246031 1.990812 26.355406 1.100187 26.355406 -0.001375 C 26.355406 -1.099031 27.246031 -1.993563 28.347594 -1.993563 C 29.449156 -1.993563 30.339781 -1.099031 30.339781 -0.001375 Z M 30.339781 -0.001375 " transform="matrix(1,0,0,-1,3.086,95.608)"/>
<path style="fill:none;stroke-width:0.3985;stroke-linecap:butt;stroke-linejoin:miter;stroke:rgb(0%,0%,0%);stroke-opacity:1;stroke-miterlimit:10;" d="M -0.0000625 30.736906 L -0.0000625 54.303312 M 1.691344 58.385344 L 26.656188 83.350187 M 30.039 83.350187 L 55.003844 58.385344 M 56.69525 54.303312 L 56.69525 30.736906 M 55.003844 26.654875 L 30.039 1.690031 M 26.656188 1.690031 L 1.691344 26.654875 M 2.390563 28.346281 L 54.300719 28.346281 M 54.546813 29.4205 L 2.140563 55.623625 M 2.390563 56.693937 L 54.300719 56.693937 " transform="matrix(1,0,0,-1,3.086,95.608)"/>
<path style="fill-rule:nonzero;fill:rgb(100%,0%,0%);fill-opacity:1;stroke-width:0.79701;stroke-linecap:butt;stroke-linejoin:miter;stroke:rgb(0%,0%,0%);stroke-opacity:1;stroke-miterlimit:10;" d="M 143.7265 42.522062 C 143.7265 43.619719 142.835875 44.51425 141.734312 44.51425 C 140.63275 44.51425 139.742125 43.619719 139.742125 42.522062 C 139.742125 41.4205 140.63275 40.525969 141.734312 40.525969 C 142.835875 40.525969 143.7265 41.4205 143.7265 42.522062 Z M 143.7265 42.522062 " transform="matrix(1,0,0,-1,3.086,95.608)"/>
<path style="fill-rule:nonzero;fill:rgb(100%,0%,0%);fill-opacity:1;stroke-width:0.79701;stroke-linecap:butt;stroke-linejoin:miter;stroke:rgb(0%,0%,0%);stroke-opacity:1;stroke-miterlimit:10;" d="M 200.421812 42.522062 C 200.421812 43.619719 199.527281 44.51425 198.429625 44.51425 C 197.328062 44.51425 196.433531 43.619719 196.433531 42.522062 C 196.433531 41.4205 197.328062 40.525969 198.429625 40.525969 C 199.527281 40.525969 200.421812 41.4205 200.421812 42.522062 Z M 200.421812 42.522062 " transform="matrix(1,0,0,-1,3.086,95.608)"/>
<path style="fill-rule:nonzero;fill:rgb(100%,0%,0%);fill-opacity:1;stroke-width:0.79701;stroke-linecap:butt;stroke-linejoin:miter;stroke:rgb(0%,0%,0%);stroke-opacity:1;stroke-miterlimit:10;" d="M 115.378844 91.619719 C 115.378844 92.717375 114.488219 93.611906 113.386656 93.611906 C 112.285094 93.611906 111.394469 92.717375 111.394469 91.619719 C 111.394469 90.518156 112.285094 89.627531 113.386656 89.627531 C 114.488219 89.627531 115.378844 90.518156 115.378844 91.619719 Z M 115.378844 91.619719 " transform="matrix(1,0,0,-1,3.086,95.608)"/>
<path style="fill-rule:nonzero;fill:rgb(100%,0%,0%);fill-opacity:1;stroke-width:0.79701;stroke-linecap:butt;stroke-linejoin:miter;stroke:rgb(0%,0%,0%);stroke-opacity:1;stroke-miterlimit:10;" d="M 115.378844 -6.5795 C 115.378844 -5.477938 114.488219 -4.587313 113.386656 -4.587313 C 112.285094 -4.587313 111.394469 -5.477938 111.394469 -6.5795 C 111.394469 -7.677156 112.285094 -8.571688 113.386656 -8.571688 C 114.488219 -8.571688 115.378844 -7.677156 115.378844 -6.5795 Z M 115.378844 -6.5795 " transform="matrix(1,0,0,-1,3.086,95.608)"/>
<path style="fill:none;stroke-width:0.3985;stroke-linecap:butt;stroke-linejoin:miter;stroke:rgb(0%,0%,0%);stroke-opacity:1;stroke-miterlimit:10;" d="M 144.124937 42.522062 L 196.035094 42.522062 M 196.3515 43.721281 L 115.464781 90.4205 M 113.386656 89.229094 L 113.386656 -4.188875 M 114.585875 -4.501375 L 140.535094 40.443937 M 140.535094 44.596281 L 114.585875 89.541594 " transform="matrix(1,0,0,-1,3.086,95.608)"/>
<path style="fill:none;stroke-width:0.3985;stroke-linecap:butt;stroke-linejoin:miter;stroke:rgb(0%,0%,0%);stroke-opacity:1;stroke-miterlimit:10;" d="M 196.3515 41.318937 L 115.464781 -5.380281 " transform="matrix(1,0,0,-1,3.086,95.608)"/>
</g>
</svg>
