<?xml version="1.0" encoding="UTF-8"?>
<svg xmlns="http://www.w3.org/2000/svg" xmlns:xlink="http://www.w3.org/1999/xlink" width="309pt" height="129pt" viewBox="0 0 309 129" version="1.1">
<g id="surface1">
<path style="fill:none;stroke-width:0.3985;stroke-linecap:butt;stroke-linejoin:miter;stroke:rgb(0%,0%,0%);stroke-opacity:1;stroke-miterlimit:10;" d="M 8.470031 19.842406 C 8.470031 24.518187 4.677062 28.311156 0.00128125 28.311156 C -4.678406 28.311156 -8.467469 24.518187 -8.467469 19.842406 C -8.467469 15.166625 -4.678406 11.373656 0.00128125 11.373656 C 4.677062 11.373656 8.470031 15.166625 8.470031 19.842406 Z M 8.470031 19.842406 " transform="matrix(1,0,0,-1,9.362,84.651)"/>
<path style="fill:none;stroke-width:0.3985;stroke-linecap:butt;stroke-linejoin:miter;stroke:rgb(0%,0%,0%);stroke-opacity:1;stroke-miterlimit:10;" d="M 28.309875 39.686156 C 28.309875 44.361937 24.520812 48.154906 19.841125 48.154906 C 15.165344 48.154906 11.372375 44.361937 11.372375 39.686156 C 11.372375 35.006469 15.165344 31.217406 19.841125 31.217406 C 24.520812 31.217406 28.309875 35.006469 28.309875 39.686156 Z M 28.309875 39.686156 " transform="matrix(1,0,0,-1,9.362,84.651)"/>
<path style="fill:none;stroke-width:0.3985;stroke-linecap:butt;stroke-linejoin:miter;stroke:rgb(0%,0%,0%);stroke-opacity:1;stroke-miterlimit:10;" d="M 67.997375 39.686156 C 67.997375 44.361937 64.204406 48.154906 59.528625 48.154906 C 54.852844 48.154906 51.059875 44.361937 51.059875 39.686156 C 51.059875 35.006469 54.852844 31.217406 59.528625 31.217406 C 64.204406 31.217406 67.997375 35.006469 67.997375 39.686156 Z M 67.997375 39.686156 " transform="matrix(1,0,0,-1,9.362,84.651)"/>
<path style="fill:none;stroke-width:0.3985;stroke-linecap:butt;stroke-linejoin:miter;stroke:rgb(0%,0%,0%);stroke-opacity:1;stroke-miterlimit:10;" d="M 87.837219 19.842406 C 87.837219 24.518187 84.048156 28.311156 79.372375 28.311156 C 74.692688 28.311156 70.903625 24.518187 70.903625 19.842406 C 70.903625 15.166625 74.692688 11.373656 79.372375 11.373656 C 84.048156 11.373656 87.837219 15.166625 87.837219 19.842406 Z M 87.837219 19.842406 " transform="matrix(1,0,0,-1,9.362,84.651)"/>
<path style="fill:none;stroke-width:0.3985;stroke-linecap:butt;stroke-linejoin:miter;stroke:rgb(0%,0%,0%);stroke-opacity:1;stroke-miterlimit:10;" d="M 67.997375 -0.00134375 C 67.997375 4.678344 64.204406 8.467406 59.528625 8.467406 C 54.852844 8.467406 51.059875 4.678344 51.059875 -0.00134375 C 51.059875 -4.677125 54.852844 -8.470094 59.528625 -8.470094 C 64.204406 -8.470094 67.997375 -4.677125 67.997375 -0.00134375 Z M 67.997375 -0.00134375 " transform="matrix(1,0,0,-1,9.362,84.651)"/>
<path style="fill:none;stroke-width:0.3985;stroke-linecap:butt;stroke-linejoin:miter;stroke:rgb(0%,0%,0%);stroke-opacity:1;stroke-miterlimit:10;" d="M 28.309875 -0.00134375 C 28.309875 4.678344 24.520812 8.467406 19.841125 8.467406 C 15.165344 8.467406 11.372375 4.678344 11.372375 -0.00134375 C 11.372375 -4.677125 15.165344 -8.470094 19.841125 -8.470094 C 24.520812 -8.470094 28.309875 -4.677125 28.309875 -0.00134375 Z M 28.309875 -0.00134375 " transform="matrix(1,0,0,-1,9.362,84.651)"/>
<path style="fill:none;stroke-width:0.3985;stroke-linecap:butt;stroke-linejoin:miter;stroke:rgb(0%,0%,0%);stroke-opacity:1;stroke-miterlimit:10;" d="M 6.130187 25.971312 L 13.712219 33.55725 " transform="matrix(1,0,0,-1,9.362,84.651)"/>
<path style="fill:none;stroke-width:0.3985;stroke-linecap:butt;stroke-linejoin:miter;stroke:rgb(0%,0%,0%);stroke-opacity:1;stroke-miterlimit:10;" d="M 6.130187 13.7135 L 13.712219 6.127562 " transform="matrix(1,0,0,-1,9.362,84.651)"/>
<path style="fill:none;stroke-width:0.3985;stroke-linecap:butt;stroke-linejoin:miter;stroke:rgb(0%,0%,0%);stroke-opacity:1;stroke-dasharray:2.98883,2.98883;stroke-miterlimit:10;" d="M 8.66925 19.842406 L 70.704406 19.842406 " transform="matrix(1,0,0,-1,9.362,84.651)"/>
<path style="fill:none;stroke-width:0.3985;stroke-linecap:butt;stroke-linejoin:miter;stroke:rgb(0%,0%,0%);stroke-opacity:1;stroke-miterlimit:10;" d="M 50.860656 39.686156 L 28.509094 39.686156 " transform="matrix(1,0,0,-1,9.362,84.651)"/>
<path style="fill:none;stroke-width:0.3985;stroke-linecap:butt;stroke-linejoin:miter;stroke:rgb(0%,0%,0%);stroke-opacity:1;stroke-miterlimit:10;" d="M 65.688781 33.526 L 73.212219 26.002562 " transform="matrix(1,0,0,-1,9.362,84.651)"/>
<path style="fill:none;stroke-width:0.3985;stroke-linecap:butt;stroke-linejoin:miter;stroke:rgb(0%,0%,0%);stroke-opacity:1;stroke-miterlimit:10;" d="M 50.860656 -0.00134375 L 28.509094 -0.00134375 " transform="matrix(1,0,0,-1,9.362,84.651)"/>
<path style="fill:none;stroke-width:0.3985;stroke-linecap:butt;stroke-linejoin:miter;stroke:rgb(0%,0%,0%);stroke-opacity:1;stroke-miterlimit:10;" d="M 65.688781 6.158812 L 73.212219 13.68225 " transform="matrix(1,0,0,-1,9.362,84.651)"/>
<path style="fill:none;stroke-width:0.3985;stroke-linecap:butt;stroke-linejoin:miter;stroke:rgb(0%,0%,0%);stroke-opacity:1;stroke-miterlimit:10;" d="M 107.680969 19.842406 C 107.680969 24.518187 103.891906 28.311156 99.212219 28.311156 C 94.536438 28.311156 90.743469 24.518187 90.743469 19.842406 C 90.743469 15.166625 94.536438 11.373656 99.212219 11.373656 C 103.891906 11.373656 107.680969 15.166625 107.680969 19.842406 Z M 107.680969 19.842406 " transform="matrix(1,0,0,-1,9.362,84.651)"/>
<path style="fill:none;stroke-width:0.3985;stroke-linecap:butt;stroke-linejoin:miter;stroke:rgb(0%,0%,0%);stroke-opacity:1;stroke-miterlimit:10;" d="M 127.524719 39.686156 C 127.524719 44.361937 123.73175 48.154906 119.055969 48.154906 C 114.380188 48.154906 110.587219 44.361937 110.587219 39.686156 C 110.587219 35.006469 114.380188 31.217406 119.055969 31.217406 C 123.73175 31.217406 127.524719 35.006469 127.524719 39.686156 Z M 127.524719 39.686156 " transform="matrix(1,0,0,-1,9.362,84.651)"/>
<path style="fill:none;stroke-width:0.3985;stroke-linecap:butt;stroke-linejoin:miter;stroke:rgb(0%,0%,0%);stroke-opacity:1;stroke-miterlimit:10;" d="M 167.208313 39.686156 C 167.208313 44.361937 163.41925 48.154906 158.739563 48.154906 C 154.063781 48.154906 150.274719 44.361937 150.274719 39.686156 C 150.274719 35.006469 154.063781 31.217406 158.739563 31.217406 C 163.41925 31.217406 167.208313 35.006469 167.208313 39.686156 Z M 167.208313 39.686156 " transform="matrix(1,0,0,-1,9.362,84.651)"/>
<path style="fill:none;stroke-width:0.3985;stroke-linecap:butt;stroke-linejoin:miter;stroke:rgb(0%,0%,0%);stroke-opacity:1;stroke-miterlimit:10;" d="M 187.052063 19.842406 C 187.052063 24.518187 183.263 28.311156 178.583313 28.311156 C 173.907531 28.311156 170.114563 24.518187 170.114563 19.842406 C 170.114563 15.166625 173.907531 11.373656 178.583313 11.373656 C 183.263 11.373656 187.052063 15.166625 187.052063 19.842406 Z M 187.052063 19.842406 " transform="matrix(1,0,0,-1,9.362,84.651)"/>
<path style="fill:none;stroke-width:0.3985;stroke-linecap:butt;stroke-linejoin:miter;stroke:rgb(0%,0%,0%);stroke-opacity:1;stroke-miterlimit:10;" d="M 167.208313 -0.00134375 C 167.208313 4.678344 163.41925 8.467406 158.739563 8.467406 C 154.063781 8.467406 150.274719 4.678344 150.274719 -0.00134375 C 150.274719 -4.677125 154.063781 -8.470094 158.739563 -8.470094 C 163.41925 -8.470094 167.208313 -4.677125 167.208313 -0.00134375 Z M 167.208313 -0.00134375 " transform="matrix(1,0,0,-1,9.362,84.651)"/>
<path style="fill:none;stroke-width:0.3985;stroke-linecap:butt;stroke-linejoin:miter;stroke:rgb(0%,0%,0%);stroke-opacity:1;stroke-miterlimit:10;" d="M 127.524719 -0.00134375 C 127.524719 4.678344 123.73175 8.467406 119.055969 8.467406 C 114.380188 8.467406 110.587219 4.678344 110.587219 -0.00134375 C 110.587219 -4.677125 114.380188 -8.470094 119.055969 -8.470094 C 123.73175 -8.470094 127.524719 -4.677125 127.524719 -0.00134375 Z M 127.524719 -0.00134375 " transform="matrix(1,0,0,-1,9.362,84.651)"/>
<path style="fill:none;stroke-width:0.3985;stroke-linecap:butt;stroke-linejoin:miter;stroke:rgb(0%,0%,0%);stroke-opacity:1;stroke-miterlimit:10;" d="M 105.341125 25.971312 L 112.927063 33.55725 " transform="matrix(1,0,0,-1,9.362,84.651)"/>
<path style="fill:none;stroke-width:0.3985;stroke-linecap:butt;stroke-linejoin:miter;stroke:rgb(0%,0%,0%);stroke-opacity:1;stroke-miterlimit:10;" d="M 105.341125 13.7135 L 112.927063 6.127562 " transform="matrix(1,0,0,-1,9.362,84.651)"/>
<path style="fill:none;stroke-width:0.3985;stroke-linecap:butt;stroke-linejoin:miter;stroke:rgb(0%,0%,0%);stroke-opacity:1;stroke-dasharray:2.98883,2.98883;stroke-miterlimit:10;" d="M 93.083313 25.971312 C 17.23175 101.776 260.548156 101.854125 184.743469 26.002562 " transform="matrix(1,0,0,-1,9.362,84.651)"/>
<path style="fill:none;stroke-width:0.3985;stroke-linecap:butt;stroke-linejoin:miter;stroke:rgb(0%,0%,0%);stroke-opacity:1;stroke-miterlimit:10;" d="M 150.0755 39.686156 L 127.723938 39.686156 " transform="matrix(1,0,0,-1,9.362,84.651)"/>
<path style="fill:none;stroke-width:0.3985;stroke-linecap:butt;stroke-linejoin:miter;stroke:rgb(0%,0%,0%);stroke-opacity:1;stroke-miterlimit:10;" d="M 164.903625 33.526 L 172.427063 26.002562 " transform="matrix(1,0,0,-1,9.362,84.651)"/>
<path style="fill:none;stroke-width:0.3985;stroke-linecap:butt;stroke-linejoin:miter;stroke:rgb(0%,0%,0%);stroke-opacity:1;stroke-miterlimit:10;" d="M 150.0755 -0.00134375 L 127.723938 -0.00134375 " transform="matrix(1,0,0,-1,9.362,84.651)"/>
<path style="fill:none;stroke-width:0.3985;stroke-linecap:butt;stroke-linejoin:miter;stroke:rgb(0%,0%,0%);stroke-opacity:1;stroke-miterlimit:10;" d="M 164.903625 6.158812 L 172.427063 13.68225 " transform="matrix(1,0,0,-1,9.362,84.651)"/>
<path style="fill:none;stroke-width:0.3985;stroke-linecap:butt;stroke-linejoin:miter;stroke:rgb(0%,0%,0%);stroke-opacity:1;stroke-miterlimit:10;" d="M 206.895813 19.842406 C 206.895813 24.518187 203.102844 28.311156 198.427063 28.311156 C 193.751281 28.311156 189.958313 24.518187 189.958313 19.842406 C 189.958313 15.166625 193.751281 11.373656 198.427063 11.373656 C 203.102844 11.373656 206.895813 15.166625 206.895813 19.842406 Z M 206.895813 19.842406 " transform="matrix(1,0,0,-1,9.362,84.651)"/>
<path style="fill:none;stroke-width:0.3985;stroke-linecap:butt;stroke-linejoin:miter;stroke:rgb(0%,0%,0%);stroke-opacity:1;stroke-miterlimit:10;" d="M 226.739563 39.686156 C 226.739563 44.361937 222.946594 48.154906 218.270813 48.154906 C 213.591125 48.154906 209.802063 44.361937 209.802063 39.686156 C 209.802063 35.006469 213.591125 31.217406 218.270813 31.217406 C 222.946594 31.217406 226.739563 35.006469 226.739563 39.686156 Z M 226.739563 39.686156 " transform="matrix(1,0,0,-1,9.362,84.651)"/>
<path style="fill:none;stroke-width:0.3985;stroke-linecap:butt;stroke-linejoin:miter;stroke:rgb(0%,0%,0%);stroke-opacity:1;stroke-miterlimit:10;" d="M 266.423156 39.686156 C 266.423156 44.361937 262.630187 48.154906 257.954406 48.154906 C 253.278625 48.154906 249.485656 44.361937 249.485656 39.686156 C 249.485656 35.006469 253.278625 31.217406 257.954406 31.217406 C 262.630187 31.217406 266.423156 35.006469 266.423156 39.686156 Z M 266.423156 39.686156 " transform="matrix(1,0,0,-1,9.362,84.651)"/>
<path style="fill:none;stroke-width:0.3985;stroke-linecap:butt;stroke-linejoin:miter;stroke:rgb(0%,0%,0%);stroke-opacity:1;stroke-miterlimit:10;" d="M 286.266906 19.842406 C 286.266906 24.518187 282.473937 28.311156 277.798156 28.311156 C 273.122375 28.311156 269.329406 24.518187 269.329406 19.842406 C 269.329406 15.166625 273.122375 11.373656 277.798156 11.373656 C 282.473937 11.373656 286.266906 15.166625 286.266906 19.842406 Z M 286.266906 19.842406 " transform="matrix(1,0,0,-1,9.362,84.651)"/>
<path style="fill:none;stroke-width:0.3985;stroke-linecap:butt;stroke-linejoin:miter;stroke:rgb(0%,0%,0%);stroke-opacity:1;stroke-miterlimit:10;" d="M 266.423156 -0.00134375 C 266.423156 4.678344 262.630187 8.467406 257.954406 8.467406 C 253.278625 8.467406 249.485656 4.678344 249.485656 -0.00134375 C 249.485656 -4.677125 253.278625 -8.470094 257.954406 -8.470094 C 262.630187 -8.470094 266.423156 -4.677125 266.423156 -0.00134375 Z M 266.423156 -0.00134375 " transform="matrix(1,0,0,-1,9.362,84.651)"/>
<path style="fill:none;stroke-width:0.3985;stroke-linecap:butt;stroke-linejoin:miter;stroke:rgb(0%,0%,0%);stroke-opacity:1;stroke-miterlimit:10;" d="M 226.739563 -0.00134375 C 226.739563 4.678344 222.946594 8.467406 218.270813 8.467406 C 213.591125 8.467406 209.802063 4.678344 209.802063 -0.00134375 C 209.802063 -4.677125 213.591125 -8.470094 218.270813 -8.470094 C 222.946594 -8.470094 226.739563 -4.677125 226.739563 -0.00134375 Z M 226.739563 -0.00134375 " transform="matrix(1,0,0,-1,9.362,84.651)"/>
<path style="fill:none;stroke-width:0.3985;stroke-linecap:butt;stroke-linejoin:miter;stroke:rgb(0%,0%,0%);stroke-opacity:1;stroke-miterlimit:10;" d="M 204.555969 25.971312 L 212.141906 33.55725 " transform="matrix(1,0,0,-1,9.362,84.651)"/>
<path style="fill:none;stroke-width:0.3985;stroke-linecap:butt;stroke-linejoin:miter;stroke:rgb(0%,0%,0%);stroke-opacity:1;stroke-miterlimit:10;" d="M 204.555969 13.7135 L 212.141906 6.127562 " transform="matrix(1,0,0,-1,9.362,84.651)"/>
<path style="fill:none;stroke-width:0.3985;stroke-linecap:butt;stroke-linejoin:miter;stroke:rgb(0%,0%,0%);stroke-opacity:1;stroke-dasharray:2.98883,2.98883;stroke-miterlimit:10;" d="M 192.298156 13.7135 C 116.446594 -62.091188 359.763 -62.165406 283.958312 13.68225 " transform="matrix(1,0,0,-1,9.362,84.651)"/>
<path style="fill:none;stroke-width:0.3985;stroke-linecap:butt;stroke-linejoin:miter;stroke:rgb(0%,0%,0%);stroke-opacity:1;stroke-miterlimit:10;" d="M 249.286438 39.686156 L 226.938781 39.686156 " transform="matrix(1,0,0,-1,9.362,84.651)"/>
<path style="fill:none;stroke-width:0.3985;stroke-linecap:butt;stroke-linejoin:miter;stroke:rgb(0%,0%,0%);stroke-opacity:1;stroke-miterlimit:10;" d="M 264.114562 33.526 L 271.638 26.002562 " transform="matrix(1,0,0,-1,9.362,84.651)"/>
<path style="fill:none;stroke-width:0.3985;stroke-linecap:butt;stroke-linejoin:miter;stroke:rgb(0%,0%,0%);stroke-opacity:1;stroke-miterlimit:10;" d="M 249.286438 -0.00134375 L 226.938781 -0.00134375 " transform="matrix(1,0,0,-1,9.362,84.651)"/>
<path style="fill:none;stroke-width:0.3985;stroke-linecap:butt;stroke-linejoin:miter;stroke:rgb(0%,0%,0%);stroke-opacity:1;stroke-miterlimit:10;" d="M 264.114562 6.158812 L 271.638 13.68225 " transform="matrix(1,0,0,-1,9.362,84.651)"/>
</g>
</svg>
